# a hollow box for scenes/sealed-box.json: a cube from 0.05 to 0.20 m wound outwards, around a cavity from 0.07 to 0.18 m wound inwards
v 0.050000 0.050000 0.050000
v 0.200000 0.050000 0.050000
v 0.050000 0.200000 0.050000
v 0.200000 0.200000 0.050000
v 0.050000 0.050000 0.200000
v 0.200000 0.050000 0.200000
v 0.050000 0.200000 0.200000
v 0.200000 0.200000 0.200000
v 0.070000 0.070000 0.070000
v 0.180000 0.070000 0.070000
v 0.070000 0.180000 0.070000
v 0.180000 0.180000 0.070000
v 0.070000 0.070000 0.180000
v 0.180000 0.070000 0.180000
v 0.070000 0.180000 0.180000
v 0.180000 0.180000 0.180000
f 1 5 7
f 1 7 3
f 2 4 8
f 2 8 6
f 1 2 6
f 1 6 5
f 3 7 8
f 3 8 4
f 1 3 4
f 1 4 2
f 5 6 8
f 5 8 7
f 9 15 13
f 9 11 15
f 10 16 12
f 10 14 16
f 9 14 10
f 9 13 14
f 11 16 15
f 11 12 16
f 9 12 11
f 9 10 12
f 13 16 14
f 13 15 16
