# unit icosphere, 320 triangles (tools/deforming.py)
v -0.525731112 0.850650808 0.000000000
v 0.525731112 0.850650808 0.000000000
v -0.525731112 -0.850650808 0.000000000
v 0.525731112 -0.850650808 0.000000000
v 0.000000000 -0.525731112 0.850650808
v 0.000000000 0.525731112 0.850650808
v 0.000000000 -0.525731112 -0.850650808
v 0.000000000 0.525731112 -0.850650808
v 0.850650808 0.000000000 -0.525731112
v 0.850650808 0.000000000 0.525731112
v -0.850650808 0.000000000 -0.525731112
v -0.850650808 0.000000000 0.525731112
v -0.809016994 0.500000000 0.309016994
v -0.309016994 0.809016994 0.500000000
v -0.500000000 0.309016994 0.809016994
v 0.000000000 1.000000000 0.000000000
v 0.309016994 0.809016994 0.500000000
v -0.309016994 0.809016994 -0.500000000
v 0.309016994 0.809016994 -0.500000000
v -0.809016994 0.500000000 -0.309016994
v -0.500000000 0.309016994 -0.809016994
v -1.000000000 0.000000000 0.000000000
v 0.809016994 0.500000000 0.309016994
v 0.500000000 0.309016994 0.809016994
v 0.000000000 0.000000000 1.000000000
v -0.500000000 -0.309016994 0.809016994
v -0.809016994 -0.500000000 0.309016994
v -0.809016994 -0.500000000 -0.309016994
v -0.500000000 -0.309016994 -0.809016994
v 0.000000000 0.000000000 -1.000000000
v 0.500000000 0.309016994 -0.809016994
v 0.809016994 0.500000000 -0.309016994
v 0.809016994 -0.500000000 0.309016994
v 0.309016994 -0.809016994 0.500000000
v 0.500000000 -0.309016994 0.809016994
v 0.000000000 -1.000000000 0.000000000
v -0.309016994 -0.809016994 0.500000000
v 0.309016994 -0.809016994 -0.500000000
v -0.309016994 -0.809016994 -0.500000000
v 0.809016994 -0.500000000 -0.309016994
v 0.500000000 -0.309016994 -0.809016994
v 1.000000000 0.000000000 0.000000000
v -0.693780478 0.702046445 0.160622036
v -0.433888565 0.862668480 0.259891913
v -0.587785252 0.688190960 0.425325404
v -0.702046445 0.160622036 0.693780478
v -0.862668480 0.259891913 0.433888565
v -0.688190960 0.425325404 0.587785252
v -0.160622036 0.693780478 0.702046445
v -0.259891913 0.433888565 0.862668480
v -0.425325404 0.587785252 0.688190960
v -0.273266529 0.961938358 0.000000000
v -0.162459848 0.951056516 0.262865556
v 0.160622036 0.693780478 0.702046445
v 0.000000000 0.850650808 0.525731112
v 0.273266529 0.961938358 0.000000000
v 0.433888565 0.862668480 0.259891913
v 0.162459848 0.951056516 0.262865556
v -0.433888565 0.862668480 -0.259891913
v -0.162459848 0.951056516 -0.262865556
v 0.433888565 0.862668480 -0.259891913
v 0.162459848 0.951056516 -0.262865556
v -0.160622036 0.693780478 -0.702046445
v 0.160622036 0.693780478 -0.702046445
v 0.000000000 0.850650808 -0.525731112
v -0.693780478 0.702046445 -0.160622036
v -0.587785252 0.688190960 -0.425325404
v -0.259891913 0.433888565 -0.862668480
v -0.425325404 0.587785252 -0.688190960
v -0.862668480 0.259891913 -0.433888565
v -0.702046445 0.160622036 -0.693780478
v -0.688190960 0.425325404 -0.587785252
v -0.850650808 0.525731112 0.000000000
v -0.961938358 0.000000000 -0.273266529
v -0.951056516 0.262865556 -0.162459848
v -0.961938358 0.000000000 0.273266529
v -0.951056516 0.262865556 0.162459848
v 0.693780478 0.702046445 0.160622036
v 0.587785252 0.688190960 0.425325404
v 0.259891913 0.433888565 0.862668480
v 0.425325404 0.587785252 0.688190960
v 0.862668480 0.259891913 0.433888565
v 0.702046445 0.160622036 0.693780478
v 0.688190960 0.425325404 0.587785252
v 0.000000000 0.273266529 0.961938358
v -0.262865556 0.162459848 0.951056516
v -0.702046445 -0.160622036 0.693780478
v -0.525731112 0.000000000 0.850650808
v 0.000000000 -0.273266529 0.961938358
v -0.259891913 -0.433888565 0.862668480
v -0.262865556 -0.162459848 0.951056516
v -0.862668480 -0.259891913 0.433888565
v -0.951056516 -0.262865556 0.162459848
v -0.862668480 -0.259891913 -0.433888565
v -0.951056516 -0.262865556 -0.162459848
v -0.693780478 -0.702046445 0.160622036
v -0.693780478 -0.702046445 -0.160622036
v -0.850650808 -0.525731112 0.000000000
v -0.702046445 -0.160622036 -0.693780478
v -0.525731112 0.000000000 -0.850650808
v 0.000000000 0.273266529 -0.961938358
v -0.262865556 0.162459848 -0.951056516
v -0.259891913 -0.433888565 -0.862668480
v 0.000000000 -0.273266529 -0.961938358
v -0.262865556 -0.162459848 -0.951056516
v 0.259891913 0.433888565 -0.862668480
v 0.425325404 0.587785252 -0.688190960
v 0.693780478 0.702046445 -0.160622036
v 0.587785252 0.688190960 -0.425325404
v 0.702046445 0.160622036 -0.693780478
v 0.862668480 0.259891913 -0.433888565
v 0.688190960 0.425325404 -0.587785252
v 0.693780478 -0.702046445 0.160622036
v 0.433888565 -0.862668480 0.259891913
v 0.587785252 -0.688190960 0.425325404
v 0.702046445 -0.160622036 0.693780478
v 0.862668480 -0.259891913 0.433888565
v 0.688190960 -0.425325404 0.587785252
v 0.160622036 -0.693780478 0.702046445
v 0.259891913 -0.433888565 0.862668480
v 0.425325404 -0.587785252 0.688190960
v 0.273266529 -0.961938358 0.000000000
v 0.162459848 -0.951056516 0.262865556
v -0.160622036 -0.693780478 0.702046445
v 0.000000000 -0.850650808 0.525731112
v -0.273266529 -0.961938358 0.000000000
v -0.433888565 -0.862668480 0.259891913
v -0.162459848 -0.951056516 0.262865556
v 0.433888565 -0.862668480 -0.259891913
v 0.162459848 -0.951056516 -0.262865556
v -0.433888565 -0.862668480 -0.259891913
v -0.162459848 -0.951056516 -0.262865556
v 0.160622036 -0.693780478 -0.702046445
v -0.160622036 -0.693780478 -0.702046445
v 0.000000000 -0.850650808 -0.525731112
v 0.693780478 -0.702046445 -0.160622036
v 0.587785252 -0.688190960 -0.425325404
v 0.259891913 -0.433888565 -0.862668480
v 0.425325404 -0.587785252 -0.688190960
v 0.862668480 -0.259891913 -0.433888565
v 0.702046445 -0.160622036 -0.693780478
v 0.688190960 -0.425325404 -0.587785252
v 0.850650808 -0.525731112 0.000000000
v 0.961938358 0.000000000 -0.273266529
v 0.951056516 -0.262865556 -0.162459848
v 0.961938358 0.000000000 0.273266529
v 0.951056516 -0.262865556 0.162459848
v 0.262865556 -0.162459848 0.951056516
v 0.525731112 0.000000000 0.850650808
v 0.262865556 0.162459848 0.951056516
v -0.587785252 -0.688190960 0.425325404
v -0.425325404 -0.587785252 0.688190960
v -0.688190960 -0.425325404 0.587785252
v -0.425325404 -0.587785252 -0.688190960
v -0.587785252 -0.688190960 -0.425325404
v -0.688190960 -0.425325404 -0.587785252
v 0.525731112 0.000000000 -0.850650808
v 0.262865556 -0.162459848 -0.951056516
v 0.262865556 0.162459848 -0.951056516
v 0.951056516 0.262865556 0.162459848
v 0.951056516 0.262865556 -0.162459848
v 0.850650808 0.525731112 0.000000000
f 1 43 44
f 13 45 43
f 14 44 45
f 43 45 44
f 12 46 47
f 15 48 46
f 13 47 48
f 46 48 47
f 6 49 50
f 14 51 49
f 15 50 51
f 49 51 50
f 13 48 45
f 15 51 48
f 14 45 51
f 48 51 45
f 1 44 52
f 14 53 44
f 16 52 53
f 44 53 52
f 6 54 49
f 17 55 54
f 14 49 55
f 54 55 49
f 2 56 57
f 16 58 56
f 17 57 58
f 56 58 57
f 14 55 53
f 17 58 55
f 16 53 58
f 55 58 53
f 1 52 59
f 16 60 52
f 18 59 60
f 52 60 59
f 2 61 56
f 19 62 61
f 16 56 62
f 61 62 56
f 8 63 64
f 18 65 63
f 19 64 65
f 63 65 64
f 16 62 60
f 19 65 62
f 18 60 65
f 62 65 60
f 1 59 66
f 18 67 59
f 20 66 67
f 59 67 66
f 8 68 63
f 21 69 68
f 18 63 69
f 68 69 63
f 11 70 71
f 20 72 70
f 21 71 72
f 70 72 71
f 18 69 67
f 21 72 69
f 20 67 72
f 69 72 67
f 1 66 43
f 20 73 66
f 13 43 73
f 66 73 43
f 11 74 70
f 22 75 74
f 20 70 75
f 74 75 70
f 12 47 76
f 13 77 47
f 22 76 77
f 47 77 76
f 20 75 73
f 22 77 75
f 13 73 77
f 75 77 73
f 2 57 78
f 17 79 57
f 23 78 79
f 57 79 78
f 6 80 54
f 24 81 80
f 17 54 81
f 80 81 54
f 10 82 83
f 23 84 82
f 24 83 84
f 82 84 83
f 17 81 79
f 24 84 81
f 23 79 84
f 81 84 79
f 6 50 85
f 15 86 50
f 25 85 86
f 50 86 85
f 12 87 46
f 26 88 87
f 15 46 88
f 87 88 46
f 5 89 90
f 25 91 89
f 26 90 91
f 89 91 90
f 15 88 86
f 26 91 88
f 25 86 91
f 88 91 86
f 12 76 92
f 22 93 76
f 27 92 93
f 76 93 92
f 11 94 74
f 28 95 94
f 22 74 95
f 94 95 74
f 3 96 97
f 27 98 96
f 28 97 98
f 96 98 97
f 22 95 93
f 28 98 95
f 27 93 98
f 95 98 93
f 11 71 99
f 21 100 71
f 29 99 100
f 71 100 99
f 8 101 68
f 30 102 101
f 21 68 102
f 101 102 68
f 7 103 104
f 29 105 103
f 30 104 105
f 103 105 104
f 21 102 100
f 30 105 102
f 29 100 105
f 102 105 100
f 8 64 106
f 19 107 64
f 31 106 107
f 64 107 106
f 2 108 61
f 32 109 108
f 19 61 109
f 108 109 61
f 9 110 111
f 31 112 110
f 32 111 112
f 110 112 111
f 19 109 107
f 32 112 109
f 31 107 112
f 109 112 107
f 4 113 114
f 33 115 113
f 34 114 115
f 113 115 114
f 10 116 117
f 35 118 116
f 33 117 118
f 116 118 117
f 5 119 120
f 34 121 119
f 35 120 121
f 119 121 120
f 33 118 115
f 35 121 118
f 34 115 121
f 118 121 115
f 4 114 122
f 34 123 114
f 36 122 123
f 114 123 122
f 5 124 119
f 37 125 124
f 34 119 125
f 124 125 119
f 3 126 127
f 36 128 126
f 37 127 128
f 126 128 127
f 34 125 123
f 37 128 125
f 36 123 128
f 125 128 123
f 4 122 129
f 36 130 122
f 38 129 130
f 122 130 129
f 3 131 126
f 39 132 131
f 36 126 132
f 131 132 126
f 7 133 134
f 38 135 133
f 39 134 135
f 133 135 134
f 36 132 130
f 39 135 132
f 38 130 135
f 132 135 130
f 4 129 136
f 38 137 129
f 40 136 137
f 129 137 136
f 7 138 133
f 41 139 138
f 38 133 139
f 138 139 133
f 9 140 141
f 40 142 140
f 41 141 142
f 140 142 141
f 38 139 137
f 41 142 139
f 40 137 142
f 139 142 137
f 4 136 113
f 40 143 136
f 33 113 143
f 136 143 113
f 9 144 140
f 42 145 144
f 40 140 145
f 144 145 140
f 10 117 146
f 33 147 117
f 42 146 147
f 117 147 146
f 40 145 143
f 42 147 145
f 33 143 147
f 145 147 143
f 5 120 89
f 35 148 120
f 25 89 148
f 120 148 89
f 10 83 116
f 24 149 83
f 35 116 149
f 83 149 116
f 6 85 80
f 25 150 85
f 24 80 150
f 85 150 80
f 35 149 148
f 24 150 149
f 25 148 150
f 149 150 148
f 3 127 96
f 37 151 127
f 27 96 151
f 127 151 96
f 5 90 124
f 26 152 90
f 37 124 152
f 90 152 124
f 12 92 87
f 27 153 92
f 26 87 153
f 92 153 87
f 37 152 151
f 26 153 152
f 27 151 153
f 152 153 151
f 7 134 103
f 39 154 134
f 29 103 154
f 134 154 103
f 3 97 131
f 28 155 97
f 39 131 155
f 97 155 131
f 11 99 94
f 29 156 99
f 28 94 156
f 99 156 94
f 39 155 154
f 28 156 155
f 29 154 156
f 155 156 154
f 9 141 110
f 41 157 141
f 31 110 157
f 141 157 110
f 7 104 138
f 30 158 104
f 41 138 158
f 104 158 138
f 8 106 101
f 31 159 106
f 30 101 159
f 106 159 101
f 41 158 157
f 30 159 158
f 31 157 159
f 158 159 157
f 10 146 82
f 42 160 146
f 23 82 160
f 146 160 82
f 9 111 144
f 32 161 111
f 42 144 161
f 111 161 144
f 2 78 108
f 23 162 78
f 32 108 162
f 78 162 108
f 42 161 160
f 32 162 161
f 23 160 162
f 161 162 160
