# arm-left of the wading figure, 544 triangles (tools/wading.py)
v 0.480587 1.489112 0.810000
v 0.482043 1.489112 0.817322
v 0.486191 1.489112 0.823530
v 0.492398 1.489112 0.827678
v 0.499721 1.489112 0.829134
v 0.507043 1.489112 0.827678
v 0.513251 1.489112 0.823530
v 0.517398 1.489112 0.817322
v 0.518855 1.489112 0.810000
v 0.517398 1.489112 0.802678
v 0.513251 1.489112 0.796470
v 0.507043 1.489112 0.792322
v 0.499721 1.489112 0.790866
v 0.492398 1.489112 0.792322
v 0.486191 1.489112 0.796470
v 0.482043 1.489112 0.802678
v 0.464365 1.478274 0.810000
v 0.467057 1.478274 0.823530
v 0.474721 1.478274 0.835000
v 0.486191 1.478274 0.842664
v 0.499721 1.478274 0.845355
v 0.513251 1.478274 0.842664
v 0.524721 1.478274 0.835000
v 0.532385 1.478274 0.823530
v 0.535076 1.478274 0.810000
v 0.532385 1.478274 0.796470
v 0.524721 1.478274 0.785000
v 0.513251 1.478274 0.777336
v 0.499721 1.478274 0.774645
v 0.486191 1.478274 0.777336
v 0.474721 1.478274 0.785000
v 0.467057 1.478274 0.796470
v 0.453527 1.462052 0.810000
v 0.457043 1.462052 0.827678
v 0.467057 1.462052 0.842664
v 0.482043 1.462052 0.852678
v 0.499721 1.462052 0.856194
v 0.517398 1.462052 0.852678
v 0.532385 1.462052 0.842664
v 0.542398 1.462052 0.827678
v 0.545915 1.462052 0.810000
v 0.542398 1.462052 0.792322
v 0.532385 1.462052 0.777336
v 0.517398 1.462052 0.767322
v 0.499721 1.462052 0.763806
v 0.482043 1.462052 0.767322
v 0.467057 1.462052 0.777336
v 0.457043 1.462052 0.792322
v 0.449721 1.442918 0.810000
v 0.453527 1.442918 0.829134
v 0.464365 1.442918 0.845355
v 0.480587 1.442918 0.856194
v 0.499721 1.442918 0.860000
v 0.518855 1.442918 0.856194
v 0.535076 1.442918 0.845355
v 0.545915 1.442918 0.829134
v 0.549721 1.442918 0.810000
v 0.545915 1.442918 0.790866
v 0.535076 1.442918 0.774645
v 0.518855 1.442918 0.763806
v 0.499721 1.442918 0.760000
v 0.480587 1.442918 0.763806
v 0.464365 1.442918 0.774645
v 0.453527 1.442918 0.790866
v 0.451721 1.384918 0.810000
v 0.455375 1.384918 0.828369
v 0.465780 1.384918 0.843941
v 0.481352 1.384918 0.854346
v 0.499721 1.384918 0.858000
v 0.518090 1.384918 0.854346
v 0.533662 1.384918 0.843941
v 0.544067 1.384918 0.828369
v 0.547721 1.384918 0.810000
v 0.544067 1.384918 0.791631
v 0.533662 1.384918 0.776059
v 0.518090 1.384918 0.765654
v 0.499721 1.384918 0.762000
v 0.481352 1.384918 0.765654
v 0.465780 1.384918 0.776059
v 0.455375 1.384918 0.791631
v 0.453721 1.326918 0.810000
v 0.457222 1.326918 0.827603
v 0.467194 1.326918 0.842527
v 0.482117 1.326918 0.852498
v 0.499721 1.326918 0.856000
v 0.517324 1.326918 0.852498
v 0.532248 1.326918 0.842527
v 0.542219 1.326918 0.827603
v 0.545721 1.326918 0.810000
v 0.542219 1.326918 0.792397
v 0.532248 1.326918 0.777473
v 0.517324 1.326918 0.767502
v 0.499721 1.326918 0.764000
v 0.482117 1.326918 0.767502
v 0.467194 1.326918 0.777473
v 0.457222 1.326918 0.792397
v 0.455721 1.268918 0.810000
v 0.459070 1.268918 0.826838
v 0.468608 1.268918 0.841113
v 0.482883 1.268918 0.850651
v 0.499721 1.268918 0.854000
v 0.516559 1.268918 0.850651
v 0.530834 1.268918 0.841113
v 0.540372 1.268918 0.826838
v 0.543721 1.268918 0.810000
v 0.540372 1.268918 0.793162
v 0.530834 1.268918 0.778887
v 0.516559 1.268918 0.769349
v 0.499721 1.268918 0.766000
v 0.482883 1.268918 0.769349
v 0.468608 1.268918 0.778887
v 0.459070 1.268918 0.793162
v 0.457721 1.210918 0.810000
v 0.460918 1.210918 0.826073
v 0.470022 1.210918 0.839698
v 0.483648 1.210918 0.848803
v 0.499721 1.210918 0.852000
v 0.515794 1.210918 0.848803
v 0.529419 1.210918 0.839698
v 0.538524 1.210918 0.826073
v 0.541721 1.210918 0.810000
v 0.538524 1.210918 0.793927
v 0.529419 1.210918 0.780302
v 0.515794 1.210918 0.771197
v 0.499721 1.210918 0.768000
v 0.483648 1.210918 0.771197
v 0.470022 1.210918 0.780302
v 0.460918 1.210918 0.793927
v 0.460669 1.144261 0.810000
v 0.463642 1.144920 0.825307
v 0.472107 1.146796 0.838284
v 0.484776 1.149605 0.846955
v 0.499721 1.152918 0.850000
v 0.514665 1.156231 0.846955
v 0.527335 1.159040 0.838284
v 0.535800 1.160917 0.825307
v 0.538773 1.161576 0.810000
v 0.535800 1.160917 0.794693
v 0.527335 1.159040 0.781716
v 0.514665 1.156231 0.773045
v 0.499721 1.152918 0.770000
v 0.484776 1.149605 0.773045
v 0.472107 1.146796 0.781716
v 0.463642 1.144920 0.794693
v 0.486713 1.089477 0.810000
v 0.489376 1.090719 0.824772
v 0.496960 1.094255 0.837294
v 0.508309 1.099548 0.845662
v 0.521697 1.105790 0.848600
v 0.535085 1.112033 0.845662
v 0.546434 1.117325 0.837294
v 0.554017 1.120862 0.824772
v 0.556680 1.122103 0.810000
v 0.554017 1.120862 0.795228
v 0.546434 1.117325 0.782706
v 0.535085 1.112033 0.774338
v 0.521697 1.105790 0.771400
v 0.508309 1.099548 0.774338
v 0.496960 1.094255 0.782706
v 0.489376 1.090719 0.795228
v 0.509958 1.042941 0.810000
v 0.512525 1.044138 0.824236
v 0.519833 1.047546 0.836304
v 0.530771 1.052646 0.844368
v 0.543673 1.058662 0.847200
v 0.556575 1.064679 0.844368
v 0.567513 1.069779 0.836304
v 0.574821 1.073187 0.824236
v 0.577388 1.074384 0.810000
v 0.574821 1.073187 0.795764
v 0.567513 1.069779 0.783696
v 0.556575 1.064679 0.775632
v 0.543673 1.058662 0.772800
v 0.530771 1.052646 0.775632
v 0.519833 1.047546 0.783696
v 0.512525 1.044138 0.795764
v 0.533203 0.996405 0.810000
v 0.535673 0.997556 0.823700
v 0.542707 1.000836 0.835314
v 0.553233 1.005744 0.843075
v 0.565649 1.011534 0.845800
v 0.578066 1.017324 0.843075
v 0.588592 1.022233 0.835314
v 0.595625 1.025512 0.823700
v 0.598095 1.026664 0.810000
v 0.595625 1.025512 0.796300
v 0.588592 1.022233 0.784686
v 0.578066 1.017324 0.776925
v 0.565649 1.011534 0.774200
v 0.553233 1.005744 0.776925
v 0.542707 1.000836 0.784686
v 0.535673 0.997556 0.796300
v 0.556448 0.949868 0.810000
v 0.558822 0.950975 0.823164
v 0.565580 0.954126 0.834324
v 0.575694 0.958843 0.841781
v 0.587625 0.964406 0.844400
v 0.599556 0.969970 0.841781
v 0.609671 0.974686 0.834324
v 0.616429 0.977838 0.823164
v 0.618802 0.978944 0.810000
v 0.616429 0.977838 0.796836
v 0.609671 0.974686 0.785676
v 0.599556 0.969970 0.778219
v 0.587625 0.964406 0.775600
v 0.575694 0.958843 0.778219
v 0.565580 0.954126 0.785676
v 0.558822 0.950975 0.796836
v 0.579693 0.903332 0.810000
v 0.581970 0.904393 0.822629
v 0.588453 0.907417 0.833335
v 0.598156 0.911941 0.840488
v 0.609602 0.917278 0.843000
v 0.621047 0.922615 0.840488
v 0.630750 0.927140 0.833335
v 0.637233 0.930163 0.822629
v 0.639510 0.931225 0.810000
v 0.637233 0.930163 0.797371
v 0.630750 0.927140 0.786665
v 0.621047 0.922615 0.779512
v 0.609602 0.917278 0.777000
v 0.598156 0.911941 0.779512
v 0.588453 0.907417 0.786665
v 0.581970 0.904393 0.797371
v 0.587307 0.892948 0.810000
v 0.589410 0.893929 0.821667
v 0.595400 0.896722 0.831558
v 0.604364 0.900902 0.838167
v 0.614939 0.905833 0.840488
v 0.625513 0.910764 0.838167
v 0.634477 0.914944 0.831558
v 0.640467 0.917737 0.821667
v 0.642570 0.918718 0.810000
v 0.640467 0.917737 0.798333
v 0.634477 0.914944 0.788442
v 0.625513 0.910764 0.781833
v 0.614939 0.905833 0.779512
v 0.604364 0.900902 0.781833
v 0.595400 0.896722 0.788442
v 0.589410 0.893929 0.798333
v 0.598315 0.886268 0.810000
v 0.599925 0.887019 0.818930
v 0.604509 0.889157 0.826500
v 0.611370 0.892356 0.831558
v 0.619463 0.896130 0.833335
v 0.627556 0.899904 0.831558
v 0.634417 0.903103 0.826500
v 0.639002 0.905241 0.818930
v 0.640611 0.905992 0.810000
v 0.639002 0.905241 0.801070
v 0.634417 0.903103 0.793500
v 0.627556 0.899904 0.788442
v 0.619463 0.896130 0.786665
v 0.611370 0.892356 0.788442
v 0.604509 0.889157 0.793500
v 0.599925 0.887019 0.801070
v 0.611041 0.884310 0.810000
v 0.611912 0.884716 0.814833
v 0.614393 0.885873 0.818930
v 0.618106 0.887604 0.821667
v 0.622486 0.889647 0.822629
v 0.626866 0.891689 0.821667
v 0.630579 0.893421 0.818930
v 0.633060 0.894578 0.814833
v 0.633932 0.894984 0.810000
v 0.633060 0.894578 0.805167
v 0.630579 0.893421 0.801070
v 0.626866 0.891689 0.798333
v 0.622486 0.889647 0.797371
v 0.618106 0.887604 0.798333
v 0.614393 0.885873 0.801070
v 0.611912 0.884716 0.805167
v 0.499721 1.492918 0.810000
v 0.623548 0.887370 0.810000
f 1 17 2
f 2 17 18
f 2 18 3
f 3 18 19
f 3 19 4
f 4 19 20
f 4 20 5
f 5 20 21
f 5 21 6
f 6 21 22
f 6 22 7
f 7 22 23
f 7 23 8
f 8 23 24
f 8 24 9
f 9 24 25
f 9 25 10
f 10 25 26
f 10 26 11
f 11 26 27
f 11 27 12
f 12 27 28
f 12 28 13
f 13 28 29
f 13 29 14
f 14 29 30
f 14 30 15
f 15 30 31
f 15 31 16
f 16 31 32
f 16 32 1
f 1 32 17
f 17 33 18
f 18 33 34
f 18 34 19
f 19 34 35
f 19 35 20
f 20 35 36
f 20 36 21
f 21 36 37
f 21 37 22
f 22 37 38
f 22 38 23
f 23 38 39
f 23 39 24
f 24 39 40
f 24 40 25
f 25 40 41
f 25 41 26
f 26 41 42
f 26 42 27
f 27 42 43
f 27 43 28
f 28 43 44
f 28 44 29
f 29 44 45
f 29 45 30
f 30 45 46
f 30 46 31
f 31 46 47
f 31 47 32
f 32 47 48
f 32 48 17
f 17 48 33
f 33 49 34
f 34 49 50
f 34 50 35
f 35 50 51
f 35 51 36
f 36 51 52
f 36 52 37
f 37 52 53
f 37 53 38
f 38 53 54
f 38 54 39
f 39 54 55
f 39 55 40
f 40 55 56
f 40 56 41
f 41 56 57
f 41 57 42
f 42 57 58
f 42 58 43
f 43 58 59
f 43 59 44
f 44 59 60
f 44 60 45
f 45 60 61
f 45 61 46
f 46 61 62
f 46 62 47
f 47 62 63
f 47 63 48
f 48 63 64
f 48 64 33
f 33 64 49
f 49 65 50
f 50 65 66
f 50 66 51
f 51 66 67
f 51 67 52
f 52 67 68
f 52 68 53
f 53 68 69
f 53 69 54
f 54 69 70
f 54 70 55
f 55 70 71
f 55 71 56
f 56 71 72
f 56 72 57
f 57 72 73
f 57 73 58
f 58 73 74
f 58 74 59
f 59 74 75
f 59 75 60
f 60 75 76
f 60 76 61
f 61 76 77
f 61 77 62
f 62 77 78
f 62 78 63
f 63 78 79
f 63 79 64
f 64 79 80
f 64 80 49
f 49 80 65
f 65 81 66
f 66 81 82
f 66 82 67
f 67 82 83
f 67 83 68
f 68 83 84
f 68 84 69
f 69 84 85
f 69 85 70
f 70 85 86
f 70 86 71
f 71 86 87
f 71 87 72
f 72 87 88
f 72 88 73
f 73 88 89
f 73 89 74
f 74 89 90
f 74 90 75
f 75 90 91
f 75 91 76
f 76 91 92
f 76 92 77
f 77 92 93
f 77 93 78
f 78 93 94
f 78 94 79
f 79 94 95
f 79 95 80
f 80 95 96
f 80 96 65
f 65 96 81
f 81 97 82
f 82 97 98
f 82 98 83
f 83 98 99
f 83 99 84
f 84 99 100
f 84 100 85
f 85 100 101
f 85 101 86
f 86 101 102
f 86 102 87
f 87 102 103
f 87 103 88
f 88 103 104
f 88 104 89
f 89 104 105
f 89 105 90
f 90 105 106
f 90 106 91
f 91 106 107
f 91 107 92
f 92 107 108
f 92 108 93
f 93 108 109
f 93 109 94
f 94 109 110
f 94 110 95
f 95 110 111
f 95 111 96
f 96 111 112
f 96 112 81
f 81 112 97
f 97 113 98
f 98 113 114
f 98 114 99
f 99 114 115
f 99 115 100
f 100 115 116
f 100 116 101
f 101 116 117
f 101 117 102
f 102 117 118
f 102 118 103
f 103 118 119
f 103 119 104
f 104 119 120
f 104 120 105
f 105 120 121
f 105 121 106
f 106 121 122
f 106 122 107
f 107 122 123
f 107 123 108
f 108 123 124
f 108 124 109
f 109 124 125
f 109 125 110
f 110 125 126
f 110 126 111
f 111 126 127
f 111 127 112
f 112 127 128
f 112 128 97
f 97 128 113
f 113 129 114
f 114 129 130
f 114 130 115
f 115 130 131
f 115 131 116
f 116 131 132
f 116 132 117
f 117 132 133
f 117 133 118
f 118 133 134
f 118 134 119
f 119 134 135
f 119 135 120
f 120 135 136
f 120 136 121
f 121 136 137
f 121 137 122
f 122 137 138
f 122 138 123
f 123 138 139
f 123 139 124
f 124 139 140
f 124 140 125
f 125 140 141
f 125 141 126
f 126 141 142
f 126 142 127
f 127 142 143
f 127 143 128
f 128 143 144
f 128 144 113
f 113 144 129
f 129 145 130
f 130 145 146
f 130 146 131
f 131 146 147
f 131 147 132
f 132 147 148
f 132 148 133
f 133 148 149
f 133 149 134
f 134 149 150
f 134 150 135
f 135 150 151
f 135 151 136
f 136 151 152
f 136 152 137
f 137 152 153
f 137 153 138
f 138 153 154
f 138 154 139
f 139 154 155
f 139 155 140
f 140 155 156
f 140 156 141
f 141 156 157
f 141 157 142
f 142 157 158
f 142 158 143
f 143 158 159
f 143 159 144
f 144 159 160
f 144 160 129
f 129 160 145
f 145 161 146
f 146 161 162
f 146 162 147
f 147 162 163
f 147 163 148
f 148 163 164
f 148 164 149
f 149 164 165
f 149 165 150
f 150 165 166
f 150 166 151
f 151 166 167
f 151 167 152
f 152 167 168
f 152 168 153
f 153 168 169
f 153 169 154
f 154 169 170
f 154 170 155
f 155 170 171
f 155 171 156
f 156 171 172
f 156 172 157
f 157 172 173
f 157 173 158
f 158 173 174
f 158 174 159
f 159 174 175
f 159 175 160
f 160 175 176
f 160 176 145
f 145 176 161
f 161 177 162
f 162 177 178
f 162 178 163
f 163 178 179
f 163 179 164
f 164 179 180
f 164 180 165
f 165 180 181
f 165 181 166
f 166 181 182
f 166 182 167
f 167 182 183
f 167 183 168
f 168 183 184
f 168 184 169
f 169 184 185
f 169 185 170
f 170 185 186
f 170 186 171
f 171 186 187
f 171 187 172
f 172 187 188
f 172 188 173
f 173 188 189
f 173 189 174
f 174 189 190
f 174 190 175
f 175 190 191
f 175 191 176
f 176 191 192
f 176 192 161
f 161 192 177
f 177 193 178
f 178 193 194
f 178 194 179
f 179 194 195
f 179 195 180
f 180 195 196
f 180 196 181
f 181 196 197
f 181 197 182
f 182 197 198
f 182 198 183
f 183 198 199
f 183 199 184
f 184 199 200
f 184 200 185
f 185 200 201
f 185 201 186
f 186 201 202
f 186 202 187
f 187 202 203
f 187 203 188
f 188 203 204
f 188 204 189
f 189 204 205
f 189 205 190
f 190 205 206
f 190 206 191
f 191 206 207
f 191 207 192
f 192 207 208
f 192 208 177
f 177 208 193
f 193 209 194
f 194 209 210
f 194 210 195
f 195 210 211
f 195 211 196
f 196 211 212
f 196 212 197
f 197 212 213
f 197 213 198
f 198 213 214
f 198 214 199
f 199 214 215
f 199 215 200
f 200 215 216
f 200 216 201
f 201 216 217
f 201 217 202
f 202 217 218
f 202 218 203
f 203 218 219
f 203 219 204
f 204 219 220
f 204 220 205
f 205 220 221
f 205 221 206
f 206 221 222
f 206 222 207
f 207 222 223
f 207 223 208
f 208 223 224
f 208 224 193
f 193 224 209
f 209 225 210
f 210 225 226
f 210 226 211
f 211 226 227
f 211 227 212
f 212 227 228
f 212 228 213
f 213 228 229
f 213 229 214
f 214 229 230
f 214 230 215
f 215 230 231
f 215 231 216
f 216 231 232
f 216 232 217
f 217 232 233
f 217 233 218
f 218 233 234
f 218 234 219
f 219 234 235
f 219 235 220
f 220 235 236
f 220 236 221
f 221 236 237
f 221 237 222
f 222 237 238
f 222 238 223
f 223 238 239
f 223 239 224
f 224 239 240
f 224 240 209
f 209 240 225
f 225 241 226
f 226 241 242
f 226 242 227
f 227 242 243
f 227 243 228
f 228 243 244
f 228 244 229
f 229 244 245
f 229 245 230
f 230 245 246
f 230 246 231
f 231 246 247
f 231 247 232
f 232 247 248
f 232 248 233
f 233 248 249
f 233 249 234
f 234 249 250
f 234 250 235
f 235 250 251
f 235 251 236
f 236 251 252
f 236 252 237
f 237 252 253
f 237 253 238
f 238 253 254
f 238 254 239
f 239 254 255
f 239 255 240
f 240 255 256
f 240 256 225
f 225 256 241
f 241 257 242
f 242 257 258
f 242 258 243
f 243 258 259
f 243 259 244
f 244 259 260
f 244 260 245
f 245 260 261
f 245 261 246
f 246 261 262
f 246 262 247
f 247 262 263
f 247 263 248
f 248 263 264
f 248 264 249
f 249 264 265
f 249 265 250
f 250 265 266
f 250 266 251
f 251 266 267
f 251 267 252
f 252 267 268
f 252 268 253
f 253 268 269
f 253 269 254
f 254 269 270
f 254 270 255
f 255 270 271
f 255 271 256
f 256 271 272
f 256 272 241
f 241 272 257
f 273 1 2
f 274 258 257
f 273 2 3
f 274 259 258
f 273 3 4
f 274 260 259
f 273 4 5
f 274 261 260
f 273 5 6
f 274 262 261
f 273 6 7
f 274 263 262
f 273 7 8
f 274 264 263
f 273 8 9
f 274 265 264
f 273 9 10
f 274 266 265
f 273 10 11
f 274 267 266
f 273 11 12
f 274 268 267
f 273 12 13
f 274 269 268
f 273 13 14
f 274 270 269
f 273 14 15
f 274 271 270
f 273 15 16
f 274 272 271
f 273 16 1
f 274 257 272
