# foot-left of the wading figure, 384 triangles (tools/wading.py)
v 0.090908 0.213228 0.700000
v 0.091918 0.214064 0.706590
v 0.094795 0.216444 0.712177
v 0.099099 0.220005 0.715910
v 0.104177 0.224206 0.717221
v 0.109254 0.228407 0.715910
v 0.113559 0.231968 0.712177
v 0.116435 0.234348 0.706590
v 0.117445 0.235184 0.700000
v 0.116435 0.234348 0.693410
v 0.113559 0.231968 0.687823
v 0.109254 0.228407 0.684090
v 0.104177 0.224206 0.682779
v 0.099099 0.220005 0.684090
v 0.094795 0.216444 0.687823
v 0.091918 0.214064 0.693410
v 0.085879 0.196406 0.700000
v 0.087745 0.197950 0.712177
v 0.093059 0.202347 0.722500
v 0.101013 0.208928 0.729398
v 0.110395 0.216690 0.731820
v 0.119777 0.224453 0.729398
v 0.127731 0.231033 0.722500
v 0.133045 0.235430 0.712177
v 0.134911 0.236974 0.700000
v 0.133045 0.235430 0.687823
v 0.127731 0.231033 0.677500
v 0.119777 0.224453 0.670602
v 0.110395 0.216690 0.668180
v 0.101013 0.208928 0.670602
v 0.093059 0.202347 0.677500
v 0.087745 0.197950 0.687823
v 0.087669 0.178939 0.700000
v 0.090107 0.180957 0.715910
v 0.097051 0.186702 0.729398
v 0.107443 0.195300 0.738410
v 0.119701 0.205442 0.741575
v 0.131960 0.215584 0.738410
v 0.142352 0.224182 0.729398
v 0.149295 0.229927 0.715910
v 0.151734 0.231945 0.700000
v 0.149295 0.229927 0.684090
v 0.142352 0.224182 0.670602
v 0.131960 0.215584 0.661590
v 0.119701 0.205442 0.658425
v 0.107443 0.195300 0.661590
v 0.097051 0.186702 0.670602
v 0.090107 0.180957 0.684090
v 0.096008 0.163488 0.700000
v 0.098647 0.165671 0.717221
v 0.106163 0.171890 0.731820
v 0.117411 0.181196 0.741575
v 0.130679 0.192174 0.745000
v 0.143947 0.203152 0.741575
v 0.155195 0.212458 0.731820
v 0.162711 0.218676 0.717221
v 0.165350 0.220860 0.700000
v 0.162711 0.218676 0.682779
v 0.155195 0.212458 0.668180
v 0.143947 0.203152 0.658425
v 0.130679 0.192174 0.655000
v 0.117411 0.181196 0.658425
v 0.106163 0.171890 0.668180
v 0.098647 0.165671 0.682779
v 0.117948 0.140107 0.700000
v 0.120470 0.142194 0.716455
v 0.127651 0.148136 0.730406
v 0.138400 0.157029 0.739727
v 0.151078 0.167519 0.743000
v 0.163757 0.178008 0.739727
v 0.174505 0.186901 0.730406
v 0.181687 0.192843 0.716455
v 0.184209 0.194930 0.700000
v 0.181687 0.192843 0.683545
v 0.174505 0.186901 0.669594
v 0.163757 0.178008 0.660273
v 0.151078 0.167519 0.657000
v 0.138400 0.157029 0.660273
v 0.127651 0.148136 0.669594
v 0.120470 0.142194 0.683545
v 0.139888 0.116727 0.700000
v 0.142292 0.118717 0.715690
v 0.149140 0.124382 0.728991
v 0.159388 0.132861 0.737879
v 0.171477 0.142863 0.741000
v 0.183566 0.152865 0.737879
v 0.193814 0.161344 0.728991
v 0.200662 0.167010 0.715690
v 0.203067 0.169000 0.700000
v 0.200662 0.167010 0.684310
v 0.193814 0.161344 0.671009
v 0.183566 0.152865 0.662121
v 0.171477 0.142863 0.659000
v 0.159388 0.132861 0.662121
v 0.149140 0.124382 0.671009
v 0.142292 0.118717 0.684310
v 0.161828 0.093347 0.700000
v 0.164115 0.095239 0.714925
v 0.170629 0.100629 0.727577
v 0.180377 0.108694 0.736031
v 0.191876 0.118208 0.739000
v 0.203375 0.127722 0.736031
v 0.213124 0.135788 0.727577
v 0.219637 0.141177 0.714925
v 0.221925 0.143069 0.700000
v 0.219637 0.141177 0.685075
v 0.213124 0.135788 0.672423
v 0.203375 0.127722 0.663969
v 0.191876 0.118208 0.661000
v 0.180377 0.108694 0.663969
v 0.170629 0.100629 0.672423
v 0.164115 0.095239 0.685075
v 0.183768 0.069967 0.700000
v 0.185938 0.071762 0.714159
v 0.192117 0.076875 0.726163
v 0.201366 0.084527 0.734184
v 0.212275 0.093553 0.737000
v 0.223185 0.102579 0.734184
v 0.232433 0.110231 0.726163
v 0.238613 0.115344 0.714159
v 0.240783 0.117139 0.700000
v 0.238613 0.115344 0.685841
v 0.232433 0.110231 0.673837
v 0.223185 0.102579 0.665816
v 0.212275 0.093553 0.663000
v 0.201366 0.084527 0.665816
v 0.192117 0.076875 0.673837
v 0.185938 0.071762 0.685841
v 0.205708 0.046586 0.700000
v 0.207760 0.048285 0.713394
v 0.213606 0.053121 0.724749
v 0.222354 0.060359 0.732336
v 0.232674 0.068898 0.735000
v 0.242994 0.077436 0.732336
v 0.251742 0.084674 0.724749
v 0.257588 0.089511 0.713394
v 0.259641 0.091209 0.700000
v 0.257588 0.089511 0.686606
v 0.251742 0.084674 0.675251
v 0.242994 0.077436 0.667664
v 0.232674 0.068898 0.665000
v 0.222354 0.060359 0.667664
v 0.213606 0.053121 0.675251
v 0.207760 0.048285 0.686606
v 0.216298 0.037965 0.700000
v 0.218195 0.039534 0.712374
v 0.223596 0.044002 0.722865
v 0.231678 0.050690 0.729874
v 0.241212 0.058578 0.732336
v 0.250747 0.066466 0.729874
v 0.258829 0.073154 0.722865
v 0.264230 0.077622 0.712374
v 0.266126 0.079191 0.700000
v 0.264230 0.077622 0.687626
v 0.258829 0.073154 0.677135
v 0.250747 0.066466 0.670126
v 0.241212 0.058578 0.667664
v 0.231678 0.050690 0.670126
v 0.223596 0.044002 0.677135
v 0.218195 0.039534 0.687626
v 0.229382 0.034053 0.700000
v 0.230834 0.035254 0.709471
v 0.234967 0.038674 0.717500
v 0.241154 0.043792 0.722865
v 0.248451 0.049829 0.724749
v 0.255748 0.055867 0.722865
v 0.261934 0.060985 0.717500
v 0.266068 0.064405 0.709471
v 0.267519 0.065606 0.700000
v 0.266068 0.064405 0.690529
v 0.261934 0.060985 0.682500
v 0.255748 0.055867 0.677135
v 0.248451 0.049829 0.675251
v 0.241154 0.043792 0.677135
v 0.234967 0.038674 0.682500
v 0.230834 0.035254 0.690529
v 0.242968 0.035446 0.700000
v 0.243753 0.036095 0.705126
v 0.245990 0.037946 0.709471
v 0.249338 0.040716 0.712374
v 0.253287 0.043984 0.713394
v 0.257236 0.047251 0.712374
v 0.260584 0.050021 0.709471
v 0.262821 0.051872 0.705126
v 0.263607 0.052522 0.700000
v 0.262821 0.051872 0.694874
v 0.260584 0.050021 0.690529
v 0.257236 0.047251 0.687626
v 0.253287 0.043984 0.686606
v 0.249338 0.040716 0.687626
v 0.245990 0.037946 0.690529
v 0.243753 0.036095 0.694874
v 0.101993 0.226845 0.700000
v 0.254986 0.041931 0.700000
f 1 17 2
f 2 17 18
f 2 18 3
f 3 18 19
f 3 19 4
f 4 19 20
f 4 20 5
f 5 20 21
f 5 21 6
f 6 21 22
f 6 22 7
f 7 22 23
f 7 23 8
f 8 23 24
f 8 24 9
f 9 24 25
f 9 25 10
f 10 25 26
f 10 26 11
f 11 26 27
f 11 27 12
f 12 27 28
f 12 28 13
f 13 28 29
f 13 29 14
f 14 29 30
f 14 30 15
f 15 30 31
f 15 31 16
f 16 31 32
f 16 32 1
f 1 32 17
f 17 33 18
f 18 33 34
f 18 34 19
f 19 34 35
f 19 35 20
f 20 35 36
f 20 36 21
f 21 36 37
f 21 37 22
f 22 37 38
f 22 38 23
f 23 38 39
f 23 39 24
f 24 39 40
f 24 40 25
f 25 40 41
f 25 41 26
f 26 41 42
f 26 42 27
f 27 42 43
f 27 43 28
f 28 43 44
f 28 44 29
f 29 44 45
f 29 45 30
f 30 45 46
f 30 46 31
f 31 46 47
f 31 47 32
f 32 47 48
f 32 48 17
f 17 48 33
f 33 49 34
f 34 49 50
f 34 50 35
f 35 50 51
f 35 51 36
f 36 51 52
f 36 52 37
f 37 52 53
f 37 53 38
f 38 53 54
f 38 54 39
f 39 54 55
f 39 55 40
f 40 55 56
f 40 56 41
f 41 56 57
f 41 57 42
f 42 57 58
f 42 58 43
f 43 58 59
f 43 59 44
f 44 59 60
f 44 60 45
f 45 60 61
f 45 61 46
f 46 61 62
f 46 62 47
f 47 62 63
f 47 63 48
f 48 63 64
f 48 64 33
f 33 64 49
f 49 65 50
f 50 65 66
f 50 66 51
f 51 66 67
f 51 67 52
f 52 67 68
f 52 68 53
f 53 68 69
f 53 69 54
f 54 69 70
f 54 70 55
f 55 70 71
f 55 71 56
f 56 71 72
f 56 72 57
f 57 72 73
f 57 73 58
f 58 73 74
f 58 74 59
f 59 74 75
f 59 75 60
f 60 75 76
f 60 76 61
f 61 76 77
f 61 77 62
f 62 77 78
f 62 78 63
f 63 78 79
f 63 79 64
f 64 79 80
f 64 80 49
f 49 80 65
f 65 81 66
f 66 81 82
f 66 82 67
f 67 82 83
f 67 83 68
f 68 83 84
f 68 84 69
f 69 84 85
f 69 85 70
f 70 85 86
f 70 86 71
f 71 86 87
f 71 87 72
f 72 87 88
f 72 88 73
f 73 88 89
f 73 89 74
f 74 89 90
f 74 90 75
f 75 90 91
f 75 91 76
f 76 91 92
f 76 92 77
f 77 92 93
f 77 93 78
f 78 93 94
f 78 94 79
f 79 94 95
f 79 95 80
f 80 95 96
f 80 96 65
f 65 96 81
f 81 97 82
f 82 97 98
f 82 98 83
f 83 98 99
f 83 99 84
f 84 99 100
f 84 100 85
f 85 100 101
f 85 101 86
f 86 101 102
f 86 102 87
f 87 102 103
f 87 103 88
f 88 103 104
f 88 104 89
f 89 104 105
f 89 105 90
f 90 105 106
f 90 106 91
f 91 106 107
f 91 107 92
f 92 107 108
f 92 108 93
f 93 108 109
f 93 109 94
f 94 109 110
f 94 110 95
f 95 110 111
f 95 111 96
f 96 111 112
f 96 112 81
f 81 112 97
f 97 113 98
f 98 113 114
f 98 114 99
f 99 114 115
f 99 115 100
f 100 115 116
f 100 116 101
f 101 116 117
f 101 117 102
f 102 117 118
f 102 118 103
f 103 118 119
f 103 119 104
f 104 119 120
f 104 120 105
f 105 120 121
f 105 121 106
f 106 121 122
f 106 122 107
f 107 122 123
f 107 123 108
f 108 123 124
f 108 124 109
f 109 124 125
f 109 125 110
f 110 125 126
f 110 126 111
f 111 126 127
f 111 127 112
f 112 127 128
f 112 128 97
f 97 128 113
f 113 129 114
f 114 129 130
f 114 130 115
f 115 130 131
f 115 131 116
f 116 131 132
f 116 132 117
f 117 132 133
f 117 133 118
f 118 133 134
f 118 134 119
f 119 134 135
f 119 135 120
f 120 135 136
f 120 136 121
f 121 136 137
f 121 137 122
f 122 137 138
f 122 138 123
f 123 138 139
f 123 139 124
f 124 139 140
f 124 140 125
f 125 140 141
f 125 141 126
f 126 141 142
f 126 142 127
f 127 142 143
f 127 143 128
f 128 143 144
f 128 144 113
f 113 144 129
f 129 145 130
f 130 145 146
f 130 146 131
f 131 146 147
f 131 147 132
f 132 147 148
f 132 148 133
f 133 148 149
f 133 149 134
f 134 149 150
f 134 150 135
f 135 150 151
f 135 151 136
f 136 151 152
f 136 152 137
f 137 152 153
f 137 153 138
f 138 153 154
f 138 154 139
f 139 154 155
f 139 155 140
f 140 155 156
f 140 156 141
f 141 156 157
f 141 157 142
f 142 157 158
f 142 158 143
f 143 158 159
f 143 159 144
f 144 159 160
f 144 160 129
f 129 160 145
f 145 161 146
f 146 161 162
f 146 162 147
f 147 162 163
f 147 163 148
f 148 163 164
f 148 164 149
f 149 164 165
f 149 165 150
f 150 165 166
f 150 166 151
f 151 166 167
f 151 167 152
f 152 167 168
f 152 168 153
f 153 168 169
f 153 169 154
f 154 169 170
f 154 170 155
f 155 170 171
f 155 171 156
f 156 171 172
f 156 172 157
f 157 172 173
f 157 173 158
f 158 173 174
f 158 174 159
f 159 174 175
f 159 175 160
f 160 175 176
f 160 176 145
f 145 176 161
f 161 177 162
f 162 177 178
f 162 178 163
f 163 178 179
f 163 179 164
f 164 179 180
f 164 180 165
f 165 180 181
f 165 181 166
f 166 181 182
f 166 182 167
f 167 182 183
f 167 183 168
f 168 183 184
f 168 184 169
f 169 184 185
f 169 185 170
f 170 185 186
f 170 186 171
f 171 186 187
f 171 187 172
f 172 187 188
f 172 188 173
f 173 188 189
f 173 189 174
f 174 189 190
f 174 190 175
f 175 190 191
f 175 191 176
f 176 191 192
f 176 192 161
f 161 192 177
f 193 1 2
f 194 178 177
f 193 2 3
f 194 179 178
f 193 3 4
f 194 180 179
f 193 4 5
f 194 181 180
f 193 5 6
f 194 182 181
f 193 6 7
f 194 183 182
f 193 7 8
f 194 184 183
f 193 8 9
f 194 185 184
f 193 9 10
f 194 186 185
f 193 10 11
f 194 187 186
f 193 11 12
f 194 188 187
f 193 12 13
f 194 189 188
f 193 13 14
f 194 190 189
f 193 14 15
f 194 191 190
f 193 15 16
f 194 192 191
f 193 16 1
f 194 177 192
