# foot-right of the wading figure, 384 triangles (tools/wading.py)
v 0.405080 0.042326 0.500000
v 0.405508 0.043564 0.506590
v 0.406729 0.047092 0.512177
v 0.408557 0.052372 0.515910
v 0.410712 0.058599 0.517221
v 0.412868 0.064827 0.515910
v 0.414696 0.070106 0.512177
v 0.415917 0.073634 0.506590
v 0.416345 0.074873 0.500000
v 0.415917 0.073634 0.493410
v 0.414696 0.070106 0.487823
v 0.412868 0.064827 0.484090
v 0.410712 0.058599 0.482779
v 0.408557 0.052372 0.484090
v 0.406729 0.047092 0.487823
v 0.405508 0.043564 0.493410
v 0.409522 0.025339 0.500000
v 0.410315 0.027628 0.512177
v 0.412571 0.034146 0.522500
v 0.415948 0.043901 0.529398
v 0.419931 0.055408 0.531820
v 0.423914 0.066915 0.529398
v 0.427290 0.076671 0.522500
v 0.429547 0.083189 0.512177
v 0.430339 0.085478 0.500000
v 0.429547 0.083189 0.487823
v 0.427290 0.076671 0.477500
v 0.423914 0.066915 0.470602
v 0.419931 0.055408 0.468180
v 0.415948 0.043901 0.470602
v 0.412571 0.034146 0.477500
v 0.410315 0.027628 0.487823
v 0.420127 0.011345 0.500000
v 0.421163 0.014336 0.515910
v 0.424111 0.022852 0.529398
v 0.428522 0.035598 0.538410
v 0.433727 0.050633 0.541575
v 0.438931 0.065668 0.538410
v 0.443343 0.078413 0.529398
v 0.446291 0.086930 0.515910
v 0.447326 0.089920 0.500000
v 0.446291 0.086930 0.484090
v 0.443343 0.078413 0.470602
v 0.438931 0.065668 0.461590
v 0.433727 0.050633 0.458425
v 0.428522 0.035598 0.461590
v 0.424111 0.022852 0.470602
v 0.421163 0.014336 0.484090
v 0.435280 0.002475 0.500000
v 0.436401 0.005712 0.517221
v 0.439592 0.014931 0.531820
v 0.444367 0.028727 0.541575
v 0.450000 0.045000 0.545000
v 0.455633 0.061273 0.541575
v 0.460408 0.075069 0.531820
v 0.463599 0.084288 0.517221
v 0.464720 0.087525 0.500000
v 0.463599 0.084288 0.482779
v 0.460408 0.075069 0.468180
v 0.455633 0.061273 0.458425
v 0.450000 0.045000 0.455000
v 0.444367 0.028727 0.458425
v 0.439592 0.014931 0.468180
v 0.436401 0.005712 0.482779
v 0.466174 -0.006102 0.500000
v 0.467245 -0.003009 0.516455
v 0.470294 0.005800 0.530406
v 0.474857 0.018983 0.539727
v 0.480240 0.034533 0.543000
v 0.485622 0.050083 0.539727
v 0.490185 0.063266 0.530406
v 0.493234 0.072074 0.516455
v 0.494305 0.075167 0.500000
v 0.493234 0.072074 0.483545
v 0.490185 0.063266 0.469594
v 0.485622 0.050083 0.460273
v 0.480240 0.034533 0.457000
v 0.474857 0.018983 0.460273
v 0.470294 0.005800 0.469594
v 0.467245 -0.003009 0.483545
v 0.497068 -0.014679 0.500000
v 0.498089 -0.011730 0.515690
v 0.500996 -0.003331 0.528991
v 0.505347 0.009239 0.537879
v 0.510479 0.024065 0.541000
v 0.515612 0.038892 0.537879
v 0.519962 0.051462 0.528991
v 0.522870 0.059861 0.515690
v 0.523890 0.062810 0.500000
v 0.522870 0.059861 0.484310
v 0.519962 0.051462 0.471009
v 0.515612 0.038892 0.462121
v 0.510479 0.024065 0.459000
v 0.505347 0.009239 0.462121
v 0.500996 -0.003331 0.471009
v 0.498089 -0.011730 0.484310
v 0.527962 -0.023256 0.500000
v 0.528933 -0.020451 0.514925
v 0.531698 -0.012462 0.527577
v 0.535837 -0.000505 0.536031
v 0.540719 0.013598 0.539000
v 0.545601 0.027702 0.536031
v 0.549739 0.039658 0.527577
v 0.552505 0.047647 0.514925
v 0.553476 0.050453 0.500000
v 0.552505 0.047647 0.485075
v 0.549739 0.039658 0.472423
v 0.545601 0.027702 0.463969
v 0.540719 0.013598 0.461000
v 0.535837 -0.000505 0.463969
v 0.531698 -0.012462 0.472423
v 0.528933 -0.020451 0.485075
v 0.558856 -0.031834 0.500000
v 0.559777 -0.029172 0.514159
v 0.562401 -0.021593 0.526163
v 0.566327 -0.010249 0.534184
v 0.570959 0.003131 0.537000
v 0.575590 0.016511 0.534184
v 0.579517 0.027855 0.526163
v 0.582140 0.035434 0.514159
v 0.583061 0.038096 0.500000
v 0.582140 0.035434 0.485841
v 0.579517 0.027855 0.473837
v 0.575590 0.016511 0.465816
v 0.570959 0.003131 0.463000
v 0.566327 -0.010249 0.465816
v 0.562401 -0.021593 0.473837
v 0.559777 -0.029172 0.485841
v 0.589750 -0.040411 0.500000
v 0.590621 -0.037893 0.513394
v 0.593103 -0.030724 0.524749
v 0.596817 -0.019993 0.532336
v 0.601198 -0.007336 0.535000
v 0.605579 0.005321 0.532336
v 0.609294 0.016051 0.524749
v 0.611775 0.023221 0.513394
v 0.612647 0.025738 0.500000
v 0.611775 0.023221 0.486606
v 0.609294 0.016051 0.475251
v 0.605579 0.005321 0.467664
v 0.601198 -0.007336 0.465000
v 0.596817 -0.019993 0.467664
v 0.593103 -0.030724 0.475251
v 0.590621 -0.037893 0.486606
v 0.603278 -0.042274 0.500000
v 0.604083 -0.039948 0.512374
v 0.606376 -0.033325 0.522865
v 0.609808 -0.023411 0.529874
v 0.613855 -0.011718 0.532336
v 0.617903 -0.000024 0.529874
v 0.621334 0.009890 0.522865
v 0.623627 0.016513 0.512374
v 0.624432 0.018839 0.500000
v 0.623627 0.016513 0.487626
v 0.621334 0.009890 0.477135
v 0.617903 -0.000024 0.470126
v 0.613855 -0.011718 0.467664
v 0.609808 -0.023411 0.470126
v 0.606376 -0.033325 0.477135
v 0.604083 -0.039948 0.487626
v 0.616490 -0.038819 0.500000
v 0.617106 -0.037039 0.509471
v 0.618861 -0.031969 0.517500
v 0.621488 -0.024382 0.522865
v 0.624586 -0.015432 0.524749
v 0.627683 -0.006482 0.522865
v 0.630310 0.001106 0.517500
v 0.632065 0.006175 0.509471
v 0.632681 0.007956 0.500000
v 0.632065 0.006175 0.490529
v 0.630310 0.001106 0.482500
v 0.627683 -0.006482 0.477135
v 0.624586 -0.015432 0.475251
v 0.621488 -0.024382 0.477135
v 0.618861 -0.031969 0.482500
v 0.617106 -0.037039 0.490529
v 0.627374 -0.030571 0.500000
v 0.627708 -0.029607 0.505126
v 0.628657 -0.026863 0.509471
v 0.630079 -0.022757 0.512374
v 0.631755 -0.017913 0.513394
v 0.633432 -0.013070 0.512374
v 0.634853 -0.008963 0.509471
v 0.635803 -0.006220 0.505126
v 0.636136 -0.005256 0.500000
v 0.635803 -0.006220 0.494874
v 0.634853 -0.008963 0.490529
v 0.633432 -0.013070 0.487626
v 0.631755 -0.017913 0.486606
v 0.630079 -0.022757 0.487626
v 0.628657 -0.026863 0.490529
v 0.627708 -0.029607 0.494874
v 0.407475 0.059720 0.500000
v 0.634273 -0.018785 0.500000
f 1 17 2
f 2 17 18
f 2 18 3
f 3 18 19
f 3 19 4
f 4 19 20
f 4 20 5
f 5 20 21
f 5 21 6
f 6 21 22
f 6 22 7
f 7 22 23
f 7 23 8
f 8 23 24
f 8 24 9
f 9 24 25
f 9 25 10
f 10 25 26
f 10 26 11
f 11 26 27
f 11 27 12
f 12 27 28
f 12 28 13
f 13 28 29
f 13 29 14
f 14 29 30
f 14 30 15
f 15 30 31
f 15 31 16
f 16 31 32
f 16 32 1
f 1 32 17
f 17 33 18
f 18 33 34
f 18 34 19
f 19 34 35
f 19 35 20
f 20 35 36
f 20 36 21
f 21 36 37
f 21 37 22
f 22 37 38
f 22 38 23
f 23 38 39
f 23 39 24
f 24 39 40
f 24 40 25
f 25 40 41
f 25 41 26
f 26 41 42
f 26 42 27
f 27 42 43
f 27 43 28
f 28 43 44
f 28 44 29
f 29 44 45
f 29 45 30
f 30 45 46
f 30 46 31
f 31 46 47
f 31 47 32
f 32 47 48
f 32 48 17
f 17 48 33
f 33 49 34
f 34 49 50
f 34 50 35
f 35 50 51
f 35 51 36
f 36 51 52
f 36 52 37
f 37 52 53
f 37 53 38
f 38 53 54
f 38 54 39
f 39 54 55
f 39 55 40
f 40 55 56
f 40 56 41
f 41 56 57
f 41 57 42
f 42 57 58
f 42 58 43
f 43 58 59
f 43 59 44
f 44 59 60
f 44 60 45
f 45 60 61
f 45 61 46
f 46 61 62
f 46 62 47
f 47 62 63
f 47 63 48
f 48 63 64
f 48 64 33
f 33 64 49
f 49 65 50
f 50 65 66
f 50 66 51
f 51 66 67
f 51 67 52
f 52 67 68
f 52 68 53
f 53 68 69
f 53 69 54
f 54 69 70
f 54 70 55
f 55 70 71
f 55 71 56
f 56 71 72
f 56 72 57
f 57 72 73
f 57 73 58
f 58 73 74
f 58 74 59
f 59 74 75
f 59 75 60
f 60 75 76
f 60 76 61
f 61 76 77
f 61 77 62
f 62 77 78
f 62 78 63
f 63 78 79
f 63 79 64
f 64 79 80
f 64 80 49
f 49 80 65
f 65 81 66
f 66 81 82
f 66 82 67
f 67 82 83
f 67 83 68
f 68 83 84
f 68 84 69
f 69 84 85
f 69 85 70
f 70 85 86
f 70 86 71
f 71 86 87
f 71 87 72
f 72 87 88
f 72 88 73
f 73 88 89
f 73 89 74
f 74 89 90
f 74 90 75
f 75 90 91
f 75 91 76
f 76 91 92
f 76 92 77
f 77 92 93
f 77 93 78
f 78 93 94
f 78 94 79
f 79 94 95
f 79 95 80
f 80 95 96
f 80 96 65
f 65 96 81
f 81 97 82
f 82 97 98
f 82 98 83
f 83 98 99
f 83 99 84
f 84 99 100
f 84 100 85
f 85 100 101
f 85 101 86
f 86 101 102
f 86 102 87
f 87 102 103
f 87 103 88
f 88 103 104
f 88 104 89
f 89 104 105
f 89 105 90
f 90 105 106
f 90 106 91
f 91 106 107
f 91 107 92
f 92 107 108
f 92 108 93
f 93 108 109
f 93 109 94
f 94 109 110
f 94 110 95
f 95 110 111
f 95 111 96
f 96 111 112
f 96 112 81
f 81 112 97
f 97 113 98
f 98 113 114
f 98 114 99
f 99 114 115
f 99 115 100
f 100 115 116
f 100 116 101
f 101 116 117
f 101 117 102
f 102 117 118
f 102 118 103
f 103 118 119
f 103 119 104
f 104 119 120
f 104 120 105
f 105 120 121
f 105 121 106
f 106 121 122
f 106 122 107
f 107 122 123
f 107 123 108
f 108 123 124
f 108 124 109
f 109 124 125
f 109 125 110
f 110 125 126
f 110 126 111
f 111 126 127
f 111 127 112
f 112 127 128
f 112 128 97
f 97 128 113
f 113 129 114
f 114 129 130
f 114 130 115
f 115 130 131
f 115 131 116
f 116 131 132
f 116 132 117
f 117 132 133
f 117 133 118
f 118 133 134
f 118 134 119
f 119 134 135
f 119 135 120
f 120 135 136
f 120 136 121
f 121 136 137
f 121 137 122
f 122 137 138
f 122 138 123
f 123 138 139
f 123 139 124
f 124 139 140
f 124 140 125
f 125 140 141
f 125 141 126
f 126 141 142
f 126 142 127
f 127 142 143
f 127 143 128
f 128 143 144
f 128 144 113
f 113 144 129
f 129 145 130
f 130 145 146
f 130 146 131
f 131 146 147
f 131 147 132
f 132 147 148
f 132 148 133
f 133 148 149
f 133 149 134
f 134 149 150
f 134 150 135
f 135 150 151
f 135 151 136
f 136 151 152
f 136 152 137
f 137 152 153
f 137 153 138
f 138 153 154
f 138 154 139
f 139 154 155
f 139 155 140
f 140 155 156
f 140 156 141
f 141 156 157
f 141 157 142
f 142 157 158
f 142 158 143
f 143 158 159
f 143 159 144
f 144 159 160
f 144 160 129
f 129 160 145
f 145 161 146
f 146 161 162
f 146 162 147
f 147 162 163
f 147 163 148
f 148 163 164
f 148 164 149
f 149 164 165
f 149 165 150
f 150 165 166
f 150 166 151
f 151 166 167
f 151 167 152
f 152 167 168
f 152 168 153
f 153 168 169
f 153 169 154
f 154 169 170
f 154 170 155
f 155 170 171
f 155 171 156
f 156 171 172
f 156 172 157
f 157 172 173
f 157 173 158
f 158 173 174
f 158 174 159
f 159 174 175
f 159 175 160
f 160 175 176
f 160 176 145
f 145 176 161
f 161 177 162
f 162 177 178
f 162 178 163
f 163 178 179
f 163 179 164
f 164 179 180
f 164 180 165
f 165 180 181
f 165 181 166
f 166 181 182
f 166 182 167
f 167 182 183
f 167 183 168
f 168 183 184
f 168 184 169
f 169 184 185
f 169 185 170
f 170 185 186
f 170 186 171
f 171 186 187
f 171 187 172
f 172 187 188
f 172 188 173
f 173 188 189
f 173 189 174
f 174 189 190
f 174 190 175
f 175 190 191
f 175 191 176
f 176 191 192
f 176 192 161
f 161 192 177
f 193 1 2
f 194 178 177
f 193 2 3
f 194 179 178
f 193 3 4
f 194 180 179
f 193 4 5
f 194 181 180
f 193 5 6
f 194 182 181
f 193 6 7
f 194 183 182
f 193 7 8
f 194 184 183
f 193 8 9
f 194 185 184
f 193 9 10
f 194 186 185
f 193 10 11
f 194 187 186
f 193 11 12
f 194 188 187
f 193 12 13
f 194 189 188
f 193 13 14
f 194 190 189
f 193 14 15
f 194 191 190
f 193 15 16
f 194 192 191
f 193 16 1
f 194 177 192
