# head of the wading figure, 384 triangles (tools/wading.py)
v 0.540744 1.460570 0.600000
v 0.537992 1.460860 0.613912
v 0.530154 1.461684 0.625707
v 0.518424 1.462916 0.633588
v 0.504588 1.464371 0.636355
v 0.490752 1.465825 0.633588
v 0.479022 1.467058 0.625707
v 0.471184 1.467881 0.613912
v 0.468432 1.468171 0.600000
v 0.471184 1.467881 0.586088
v 0.479022 1.467058 0.574293
v 0.490752 1.465825 0.566412
v 0.504588 1.464371 0.563645
v 0.518424 1.462916 0.566412
v 0.530154 1.461684 0.574293
v 0.537992 1.460860 0.586088
v 0.573548 1.477829 0.600000
v 0.568462 1.478364 0.625707
v 0.553980 1.479886 0.647500
v 0.532307 1.482164 0.662062
v 0.506741 1.484851 0.667175
v 0.481175 1.487538 0.662062
v 0.459501 1.489816 0.647500
v 0.445019 1.491338 0.625707
v 0.439933 1.491873 0.600000
v 0.445019 1.491338 0.574293
v 0.459501 1.489816 0.552500
v 0.481175 1.487538 0.537938
v 0.506741 1.484851 0.532825
v 0.532307 1.482164 0.537938
v 0.553980 1.479886 0.552500
v 0.568462 1.478364 0.574293
v 0.597250 1.506328 0.600000
v 0.590606 1.507027 0.633588
v 0.571684 1.509015 0.662062
v 0.543366 1.511992 0.681088
v 0.509962 1.515503 0.687769
v 0.476559 1.519013 0.681088
v 0.448240 1.521990 0.662062
v 0.429319 1.523979 0.633588
v 0.422674 1.524677 0.600000
v 0.429319 1.523979 0.566412
v 0.448240 1.521990 0.537938
v 0.476559 1.519013 0.518912
v 0.509962 1.515503 0.512231
v 0.543366 1.511992 0.518912
v 0.571684 1.509015 0.537938
v 0.590606 1.507027 0.566412
v 0.608242 1.541728 0.600000
v 0.601050 1.542484 0.636355
v 0.580570 1.544637 0.667175
v 0.549918 1.547858 0.687769
v 0.513762 1.551658 0.695000
v 0.477607 1.555458 0.687769
v 0.446955 1.558680 0.667175
v 0.426475 1.560833 0.636355
v 0.419283 1.561589 0.600000
v 0.426475 1.560833 0.563645
v 0.446955 1.558680 0.532825
v 0.477607 1.555458 0.512231
v 0.513762 1.551658 0.505000
v 0.549918 1.547858 0.512231
v 0.580570 1.544637 0.532825
v 0.601050 1.542484 0.563645
v 0.611010 1.577635 0.600000
v 0.603894 1.578383 0.635972
v 0.583629 1.580513 0.666468
v 0.553301 1.583701 0.686845
v 0.517525 1.587461 0.694000
v 0.481750 1.591221 0.686845
v 0.451421 1.594409 0.666468
v 0.431156 1.596539 0.635972
v 0.424040 1.597287 0.600000
v 0.431156 1.596539 0.564028
v 0.451421 1.594409 0.533532
v 0.481750 1.591221 0.513155
v 0.517525 1.587461 0.506000
v 0.553301 1.583701 0.513155
v 0.583629 1.580513 0.533532
v 0.603894 1.578383 0.564028
v 0.613779 1.613543 0.600000
v 0.606739 1.614283 0.635590
v 0.586689 1.616390 0.665761
v 0.556683 1.619544 0.685921
v 0.521288 1.623264 0.693000
v 0.485894 1.626984 0.685921
v 0.455888 1.630138 0.665761
v 0.435838 1.632245 0.635590
v 0.428798 1.632985 0.600000
v 0.435838 1.632245 0.564410
v 0.455888 1.630138 0.534239
v 0.485894 1.626984 0.514079
v 0.521288 1.623264 0.507000
v 0.556683 1.619544 0.514079
v 0.586689 1.616390 0.534239
v 0.606739 1.614283 0.564410
v 0.616547 1.649450 0.600000
v 0.609583 1.650182 0.635207
v 0.589749 1.652267 0.665054
v 0.560065 1.655387 0.684997
v 0.525051 1.659067 0.692000
v 0.490037 1.662747 0.684997
v 0.460354 1.665867 0.665054
v 0.440520 1.667951 0.635207
v 0.433555 1.668683 0.600000
v 0.440520 1.667951 0.564793
v 0.460354 1.665867 0.534946
v 0.490037 1.662747 0.515003
v 0.525051 1.659067 0.508000
v 0.560065 1.655387 0.515003
v 0.589749 1.652267 0.534946
v 0.609583 1.650182 0.564793
v 0.619316 1.685357 0.600000
v 0.612427 1.686081 0.634824
v 0.592809 1.688143 0.664347
v 0.563448 1.691229 0.684073
v 0.528814 1.694870 0.691000
v 0.494181 1.698510 0.684073
v 0.464820 1.701596 0.664347
v 0.445202 1.703658 0.634824
v 0.438313 1.704382 0.600000
v 0.445202 1.703658 0.565176
v 0.464820 1.701596 0.535653
v 0.494181 1.698510 0.515927
v 0.528814 1.694870 0.509000
v 0.563448 1.691229 0.515927
v 0.592809 1.688143 0.535653
v 0.612427 1.686081 0.565176
v 0.622084 1.721265 0.600000
v 0.615271 1.721981 0.634442
v 0.595868 1.724020 0.663640
v 0.566830 1.727072 0.683149
v 0.532577 1.730672 0.690000
v 0.498325 1.734272 0.683149
v 0.469287 1.737324 0.663640
v 0.449884 1.739364 0.634442
v 0.443071 1.740080 0.600000
v 0.449884 1.739364 0.565558
v 0.469287 1.737324 0.536360
v 0.498325 1.734272 0.516851
v 0.532577 1.730672 0.510000
v 0.566830 1.727072 0.516851
v 0.595868 1.724020 0.536360
v 0.615271 1.721981 0.565558
v 0.618871 1.756234 0.600000
v 0.612577 1.756895 0.631820
v 0.594651 1.758779 0.658795
v 0.567823 1.761599 0.676820
v 0.536178 1.764925 0.683149
v 0.504532 1.768251 0.676820
v 0.477704 1.771071 0.658795
v 0.459779 1.772955 0.631820
v 0.453484 1.773617 0.600000
v 0.459779 1.772955 0.568180
v 0.477704 1.771071 0.541205
v 0.504532 1.768251 0.523180
v 0.536178 1.764925 0.516851
v 0.567823 1.761599 0.523180
v 0.594651 1.758779 0.541205
v 0.612577 1.756895 0.568180
v 0.602521 1.787311 0.600000
v 0.597703 1.787817 0.624354
v 0.583983 1.789260 0.645000
v 0.563450 1.791418 0.658795
v 0.539230 1.793963 0.663640
v 0.515009 1.796509 0.658795
v 0.494476 1.798667 0.645000
v 0.480756 1.800109 0.624354
v 0.475939 1.800615 0.600000
v 0.480756 1.800109 0.575646
v 0.494476 1.798667 0.555000
v 0.515009 1.796509 0.541205
v 0.539230 1.793963 0.536360
v 0.563450 1.791418 0.541205
v 0.583983 1.789260 0.555000
v 0.597703 1.787817 0.575646
v 0.575522 1.809766 0.600000
v 0.572914 1.810040 0.613180
v 0.565489 1.810820 0.624354
v 0.554377 1.811988 0.631820
v 0.541269 1.813366 0.634442
v 0.528161 1.814744 0.631820
v 0.517049 1.815912 0.624354
v 0.509623 1.816692 0.613180
v 0.507016 1.816966 0.600000
v 0.509623 1.816692 0.586820
v 0.517049 1.815912 0.575646
v 0.528161 1.814744 0.568180
v 0.541269 1.813366 0.565558
v 0.554377 1.811988 0.568180
v 0.565489 1.810820 0.575646
v 0.572914 1.810040 0.586820
v 0.503832 1.457179 0.600000
v 0.541985 1.820179 0.600000
f 1 17 2
f 2 17 18
f 2 18 3
f 3 18 19
f 3 19 4
f 4 19 20
f 4 20 5
f 5 20 21
f 5 21 6
f 6 21 22
f 6 22 7
f 7 22 23
f 7 23 8
f 8 23 24
f 8 24 9
f 9 24 25
f 9 25 10
f 10 25 26
f 10 26 11
f 11 26 27
f 11 27 12
f 12 27 28
f 12 28 13
f 13 28 29
f 13 29 14
f 14 29 30
f 14 30 15
f 15 30 31
f 15 31 16
f 16 31 32
f 16 32 1
f 1 32 17
f 17 33 18
f 18 33 34
f 18 34 19
f 19 34 35
f 19 35 20
f 20 35 36
f 20 36 21
f 21 36 37
f 21 37 22
f 22 37 38
f 22 38 23
f 23 38 39
f 23 39 24
f 24 39 40
f 24 40 25
f 25 40 41
f 25 41 26
f 26 41 42
f 26 42 27
f 27 42 43
f 27 43 28
f 28 43 44
f 28 44 29
f 29 44 45
f 29 45 30
f 30 45 46
f 30 46 31
f 31 46 47
f 31 47 32
f 32 47 48
f 32 48 17
f 17 48 33
f 33 49 34
f 34 49 50
f 34 50 35
f 35 50 51
f 35 51 36
f 36 51 52
f 36 52 37
f 37 52 53
f 37 53 38
f 38 53 54
f 38 54 39
f 39 54 55
f 39 55 40
f 40 55 56
f 40 56 41
f 41 56 57
f 41 57 42
f 42 57 58
f 42 58 43
f 43 58 59
f 43 59 44
f 44 59 60
f 44 60 45
f 45 60 61
f 45 61 46
f 46 61 62
f 46 62 47
f 47 62 63
f 47 63 48
f 48 63 64
f 48 64 33
f 33 64 49
f 49 65 50
f 50 65 66
f 50 66 51
f 51 66 67
f 51 67 52
f 52 67 68
f 52 68 53
f 53 68 69
f 53 69 54
f 54 69 70
f 54 70 55
f 55 70 71
f 55 71 56
f 56 71 72
f 56 72 57
f 57 72 73
f 57 73 58
f 58 73 74
f 58 74 59
f 59 74 75
f 59 75 60
f 60 75 76
f 60 76 61
f 61 76 77
f 61 77 62
f 62 77 78
f 62 78 63
f 63 78 79
f 63 79 64
f 64 79 80
f 64 80 49
f 49 80 65
f 65 81 66
f 66 81 82
f 66 82 67
f 67 82 83
f 67 83 68
f 68 83 84
f 68 84 69
f 69 84 85
f 69 85 70
f 70 85 86
f 70 86 71
f 71 86 87
f 71 87 72
f 72 87 88
f 72 88 73
f 73 88 89
f 73 89 74
f 74 89 90
f 74 90 75
f 75 90 91
f 75 91 76
f 76 91 92
f 76 92 77
f 77 92 93
f 77 93 78
f 78 93 94
f 78 94 79
f 79 94 95
f 79 95 80
f 80 95 96
f 80 96 65
f 65 96 81
f 81 97 82
f 82 97 98
f 82 98 83
f 83 98 99
f 83 99 84
f 84 99 100
f 84 100 85
f 85 100 101
f 85 101 86
f 86 101 102
f 86 102 87
f 87 102 103
f 87 103 88
f 88 103 104
f 88 104 89
f 89 104 105
f 89 105 90
f 90 105 106
f 90 106 91
f 91 106 107
f 91 107 92
f 92 107 108
f 92 108 93
f 93 108 109
f 93 109 94
f 94 109 110
f 94 110 95
f 95 110 111
f 95 111 96
f 96 111 112
f 96 112 81
f 81 112 97
f 97 113 98
f 98 113 114
f 98 114 99
f 99 114 115
f 99 115 100
f 100 115 116
f 100 116 101
f 101 116 117
f 101 117 102
f 102 117 118
f 102 118 103
f 103 118 119
f 103 119 104
f 104 119 120
f 104 120 105
f 105 120 121
f 105 121 106
f 106 121 122
f 106 122 107
f 107 122 123
f 107 123 108
f 108 123 124
f 108 124 109
f 109 124 125
f 109 125 110
f 110 125 126
f 110 126 111
f 111 126 127
f 111 127 112
f 112 127 128
f 112 128 97
f 97 128 113
f 113 129 114
f 114 129 130
f 114 130 115
f 115 130 131
f 115 131 116
f 116 131 132
f 116 132 117
f 117 132 133
f 117 133 118
f 118 133 134
f 118 134 119
f 119 134 135
f 119 135 120
f 120 135 136
f 120 136 121
f 121 136 137
f 121 137 122
f 122 137 138
f 122 138 123
f 123 138 139
f 123 139 124
f 124 139 140
f 124 140 125
f 125 140 141
f 125 141 126
f 126 141 142
f 126 142 127
f 127 142 143
f 127 143 128
f 128 143 144
f 128 144 113
f 113 144 129
f 129 145 130
f 130 145 146
f 130 146 131
f 131 146 147
f 131 147 132
f 132 147 148
f 132 148 133
f 133 148 149
f 133 149 134
f 134 149 150
f 134 150 135
f 135 150 151
f 135 151 136
f 136 151 152
f 136 152 137
f 137 152 153
f 137 153 138
f 138 153 154
f 138 154 139
f 139 154 155
f 139 155 140
f 140 155 156
f 140 156 141
f 141 156 157
f 141 157 142
f 142 157 158
f 142 158 143
f 143 158 159
f 143 159 144
f 144 159 160
f 144 160 129
f 129 160 145
f 145 161 146
f 146 161 162
f 146 162 147
f 147 162 163
f 147 163 148
f 148 163 164
f 148 164 149
f 149 164 165
f 149 165 150
f 150 165 166
f 150 166 151
f 151 166 167
f 151 167 152
f 152 167 168
f 152 168 153
f 153 168 169
f 153 169 154
f 154 169 170
f 154 170 155
f 155 170 171
f 155 171 156
f 156 171 172
f 156 172 157
f 157 172 173
f 157 173 158
f 158 173 174
f 158 174 159
f 159 174 175
f 159 175 160
f 160 175 176
f 160 176 145
f 145 176 161
f 161 177 162
f 162 177 178
f 162 178 163
f 163 178 179
f 163 179 164
f 164 179 180
f 164 180 165
f 165 180 181
f 165 181 166
f 166 181 182
f 166 182 167
f 167 182 183
f 167 183 168
f 168 183 184
f 168 184 169
f 169 184 185
f 169 185 170
f 170 185 186
f 170 186 171
f 171 186 187
f 171 187 172
f 172 187 188
f 172 188 173
f 173 188 189
f 173 189 174
f 174 189 190
f 174 190 175
f 175 190 191
f 175 191 176
f 176 191 192
f 176 192 161
f 161 192 177
f 193 1 2
f 194 178 177
f 193 2 3
f 194 179 178
f 193 3 4
f 194 180 179
f 193 4 5
f 194 181 180
f 193 5 6
f 194 182 181
f 193 6 7
f 194 183 182
f 193 7 8
f 194 184 183
f 193 8 9
f 194 185 184
f 193 9 10
f 194 186 185
f 193 10 11
f 194 187 186
f 193 11 12
f 194 188 187
f 193 12 13
f 194 189 188
f 193 13 14
f 194 190 189
f 193 14 15
f 194 191 190
f 193 15 16
f 194 192 191
f 193 16 1
f 194 177 192
