# leg-left of the wading figure, 544 triangles (tools/wading.py)
v 0.417472 0.983530 0.700000
v 0.419948 0.983530 0.712448
v 0.426999 0.983530 0.723001
v 0.437552 0.983530 0.730052
v 0.450000 0.983530 0.732528
v 0.462448 0.983530 0.730052
v 0.473001 0.983530 0.723001
v 0.480052 0.983530 0.712448
v 0.482528 0.983530 0.700000
v 0.480052 0.983530 0.687552
v 0.473001 0.983530 0.676999
v 0.462448 0.983530 0.669948
v 0.450000 0.983530 0.667472
v 0.437552 0.983530 0.669948
v 0.426999 0.983530 0.676999
v 0.419948 0.983530 0.687552
v 0.389896 0.965104 0.700000
v 0.394471 0.965104 0.723001
v 0.407500 0.965104 0.742500
v 0.426999 0.965104 0.755529
v 0.450000 0.965104 0.760104
v 0.473001 0.965104 0.755529
v 0.492500 0.965104 0.742500
v 0.505529 0.965104 0.723001
v 0.510104 0.965104 0.700000
v 0.505529 0.965104 0.676999
v 0.492500 0.965104 0.657500
v 0.473001 0.965104 0.644471
v 0.450000 0.965104 0.639896
v 0.426999 0.965104 0.644471
v 0.407500 0.965104 0.657500
v 0.394471 0.965104 0.676999
v 0.371470 0.937528 0.700000
v 0.377448 0.937528 0.730052
v 0.394471 0.937528 0.755529
v 0.419948 0.937528 0.772552
v 0.450000 0.937528 0.778530
v 0.480052 0.937528 0.772552
v 0.505529 0.937528 0.755529
v 0.522552 0.937528 0.730052
v 0.528530 0.937528 0.700000
v 0.522552 0.937528 0.669948
v 0.505529 0.937528 0.644471
v 0.480052 0.937528 0.627448
v 0.450000 0.937528 0.621470
v 0.419948 0.937528 0.627448
v 0.394471 0.937528 0.644471
v 0.377448 0.937528 0.669948
v 0.365000 0.905000 0.700000
v 0.371470 0.905000 0.732528
v 0.389896 0.905000 0.760104
v 0.417472 0.905000 0.778530
v 0.450000 0.905000 0.785000
v 0.482528 0.905000 0.778530
v 0.510104 0.905000 0.760104
v 0.528530 0.905000 0.732528
v 0.535000 0.905000 0.700000
v 0.528530 0.905000 0.667472
v 0.510104 0.905000 0.639896
v 0.482528 0.905000 0.621470
v 0.450000 0.905000 0.615000
v 0.417472 0.905000 0.621470
v 0.389896 0.905000 0.639896
v 0.371470 0.905000 0.667472
v 0.369600 0.817000 0.700000
v 0.375720 0.817000 0.730768
v 0.393149 0.817000 0.756851
v 0.419232 0.817000 0.774280
v 0.450000 0.817000 0.780400
v 0.480768 0.817000 0.774280
v 0.506851 0.817000 0.756851
v 0.524280 0.817000 0.730768
v 0.530400 0.817000 0.700000
v 0.524280 0.817000 0.669232
v 0.506851 0.817000 0.643149
v 0.480768 0.817000 0.625720
v 0.450000 0.817000 0.619600
v 0.419232 0.817000 0.625720
v 0.393149 0.817000 0.643149
v 0.375720 0.817000 0.669232
v 0.374200 0.729000 0.700000
v 0.379970 0.729000 0.729007
v 0.396401 0.729000 0.753599
v 0.420993 0.729000 0.770030
v 0.450000 0.729000 0.775800
v 0.479007 0.729000 0.770030
v 0.503599 0.729000 0.753599
v 0.520030 0.729000 0.729007
v 0.525800 0.729000 0.700000
v 0.520030 0.729000 0.670993
v 0.503599 0.729000 0.646401
v 0.479007 0.729000 0.629970
v 0.450000 0.729000 0.624200
v 0.420993 0.729000 0.629970
v 0.396401 0.729000 0.646401
v 0.379970 0.729000 0.670993
v 0.378800 0.641000 0.700000
v 0.384220 0.641000 0.727247
v 0.399654 0.641000 0.750346
v 0.422753 0.641000 0.765780
v 0.450000 0.641000 0.771200
v 0.477247 0.641000 0.765780
v 0.500346 0.641000 0.750346
v 0.515780 0.641000 0.727247
v 0.521200 0.641000 0.700000
v 0.515780 0.641000 0.672753
v 0.500346 0.641000 0.649654
v 0.477247 0.641000 0.634220
v 0.450000 0.641000 0.628800
v 0.422753 0.641000 0.634220
v 0.399654 0.641000 0.649654
v 0.384220 0.641000 0.672753
v 0.383400 0.553000 0.700000
v 0.388470 0.553000 0.725487
v 0.402907 0.553000 0.747093
v 0.424513 0.553000 0.761530
v 0.450000 0.553000 0.766600
v 0.475487 0.553000 0.761530
v 0.497093 0.553000 0.747093
v 0.511530 0.553000 0.725487
v 0.516600 0.553000 0.700000
v 0.511530 0.553000 0.674513
v 0.497093 0.553000 0.652907
v 0.475487 0.553000 0.638470
v 0.450000 0.553000 0.633400
v 0.424513 0.553000 0.638470
v 0.402907 0.553000 0.652907
v 0.388470 0.553000 0.674513
v 0.393693 0.490952 0.700000
v 0.397979 0.488976 0.723726
v 0.410185 0.483351 0.743841
v 0.428452 0.474931 0.757281
v 0.450000 0.465000 0.762000
v 0.471548 0.455069 0.757281
v 0.489815 0.446649 0.743841
v 0.502021 0.441024 0.723726
v 0.506307 0.439048 0.700000
v 0.502021 0.441024 0.676274
v 0.489815 0.446649 0.656159
v 0.471548 0.455069 0.642719
v 0.450000 0.465000 0.638000
v 0.428452 0.474931 0.642719
v 0.410185 0.483351 0.656159
v 0.397979 0.488976 0.676274
v 0.348070 0.454988 0.700000
v 0.350968 0.451596 0.722425
v 0.359219 0.441938 0.741436
v 0.371569 0.427484 0.754139
v 0.386136 0.410435 0.758600
v 0.400703 0.393385 0.754139
v 0.413052 0.378931 0.741436
v 0.421304 0.369273 0.722425
v 0.424202 0.365882 0.700000
v 0.421304 0.369273 0.677575
v 0.413052 0.378931 0.658564
v 0.400703 0.393385 0.645861
v 0.386136 0.410435 0.641400
v 0.371569 0.427484 0.645861
v 0.359219 0.441938 0.658564
v 0.350968 0.451596 0.677575
v 0.286414 0.397837 0.700000
v 0.289144 0.394643 0.721124
v 0.296917 0.385545 0.739032
v 0.308550 0.371930 0.750998
v 0.322272 0.355870 0.755200
v 0.335994 0.339809 0.750998
v 0.347626 0.326194 0.739032
v 0.355399 0.317096 0.721124
v 0.358129 0.313902 0.700000
v 0.355399 0.317096 0.678876
v 0.347626 0.326194 0.660968
v 0.335994 0.339809 0.649002
v 0.322272 0.355870 0.644800
v 0.308550 0.371930 0.649002
v 0.296917 0.385545 0.660968
v 0.289144 0.394643 0.678876
v 0.224759 0.340687 0.700000
v 0.227320 0.337689 0.719823
v 0.234614 0.329152 0.736628
v 0.245531 0.316375 0.747857
v 0.258407 0.301304 0.751800
v 0.271284 0.286233 0.747857
v 0.282201 0.273456 0.736628
v 0.289495 0.264919 0.719823
v 0.292056 0.261921 0.700000
v 0.289495 0.264919 0.680177
v 0.282201 0.273456 0.663372
v 0.271284 0.286233 0.652143
v 0.258407 0.301304 0.648200
v 0.245531 0.316375 0.652143
v 0.234614 0.329152 0.663372
v 0.227320 0.337689 0.680177
v 0.163103 0.283537 0.700000
v 0.165496 0.280736 0.718522
v 0.172312 0.272759 0.734224
v 0.182512 0.260821 0.744716
v 0.194543 0.246739 0.748400
v 0.206575 0.232657 0.744716
v 0.216775 0.220719 0.734224
v 0.223590 0.212742 0.718522
v 0.225983 0.209941 0.700000
v 0.223590 0.212742 0.681478
v 0.216775 0.220719 0.665776
v 0.206575 0.232657 0.655284
v 0.194543 0.246739 0.651600
v 0.182512 0.260821 0.655284
v 0.172312 0.272759 0.665776
v 0.165496 0.280736 0.681478
v 0.101448 0.226387 0.700000
v 0.103673 0.223782 0.717221
v 0.110009 0.216366 0.731820
v 0.119493 0.205267 0.741575
v 0.130679 0.192174 0.745000
v 0.141865 0.179081 0.741575
v 0.151349 0.167982 0.731820
v 0.157685 0.160565 0.717221
v 0.159910 0.157961 0.700000
v 0.157685 0.160565 0.682779
v 0.151349 0.167982 0.668180
v 0.141865 0.179081 0.658425
v 0.130679 0.192174 0.655000
v 0.119493 0.205267 0.658425
v 0.110009 0.216366 0.668180
v 0.103673 0.223782 0.682779
v 0.090580 0.212596 0.700000
v 0.092636 0.210190 0.715910
v 0.098490 0.203338 0.729398
v 0.107251 0.193084 0.738410
v 0.117586 0.180987 0.741575
v 0.127921 0.168891 0.738410
v 0.136683 0.158637 0.729398
v 0.142537 0.151785 0.715910
v 0.144593 0.149379 0.700000
v 0.142537 0.151785 0.684090
v 0.136683 0.158637 0.670602
v 0.127921 0.168891 0.661590
v 0.117586 0.180987 0.658425
v 0.107251 0.193084 0.661590
v 0.098490 0.203338 0.670602
v 0.092636 0.210190 0.684090
v 0.085817 0.195696 0.700000
v 0.087391 0.193855 0.712177
v 0.091871 0.188611 0.722500
v 0.098577 0.180762 0.729398
v 0.106487 0.171504 0.731820
v 0.114397 0.162246 0.729398
v 0.121103 0.154398 0.722500
v 0.125583 0.149153 0.712177
v 0.127157 0.147312 0.700000
v 0.125583 0.149153 0.687823
v 0.121103 0.154398 0.677500
v 0.114397 0.162246 0.670602
v 0.106487 0.171504 0.668180
v 0.098577 0.180762 0.670602
v 0.091871 0.188611 0.677500
v 0.087391 0.193855 0.687823
v 0.087884 0.178260 0.700000
v 0.088736 0.177264 0.706590
v 0.091160 0.174426 0.712177
v 0.094790 0.170178 0.715910
v 0.099070 0.165168 0.717221
v 0.103351 0.160157 0.715910
v 0.106980 0.155910 0.712177
v 0.109405 0.153071 0.706590
v 0.110257 0.152075 0.700000
v 0.109405 0.153071 0.693410
v 0.106980 0.155910 0.687823
v 0.103351 0.160157 0.684090
v 0.099070 0.165168 0.682779
v 0.094790 0.170178 0.684090
v 0.091160 0.174426 0.687823
v 0.088736 0.177264 0.693410
v 0.450000 0.990000 0.700000
v 0.096466 0.162942 0.700000
f 1 17 2
f 2 17 18
f 2 18 3
f 3 18 19
f 3 19 4
f 4 19 20
f 4 20 5
f 5 20 21
f 5 21 6
f 6 21 22
f 6 22 7
f 7 22 23
f 7 23 8
f 8 23 24
f 8 24 9
f 9 24 25
f 9 25 10
f 10 25 26
f 10 26 11
f 11 26 27
f 11 27 12
f 12 27 28
f 12 28 13
f 13 28 29
f 13 29 14
f 14 29 30
f 14 30 15
f 15 30 31
f 15 31 16
f 16 31 32
f 16 32 1
f 1 32 17
f 17 33 18
f 18 33 34
f 18 34 19
f 19 34 35
f 19 35 20
f 20 35 36
f 20 36 21
f 21 36 37
f 21 37 22
f 22 37 38
f 22 38 23
f 23 38 39
f 23 39 24
f 24 39 40
f 24 40 25
f 25 40 41
f 25 41 26
f 26 41 42
f 26 42 27
f 27 42 43
f 27 43 28
f 28 43 44
f 28 44 29
f 29 44 45
f 29 45 30
f 30 45 46
f 30 46 31
f 31 46 47
f 31 47 32
f 32 47 48
f 32 48 17
f 17 48 33
f 33 49 34
f 34 49 50
f 34 50 35
f 35 50 51
f 35 51 36
f 36 51 52
f 36 52 37
f 37 52 53
f 37 53 38
f 38 53 54
f 38 54 39
f 39 54 55
f 39 55 40
f 40 55 56
f 40 56 41
f 41 56 57
f 41 57 42
f 42 57 58
f 42 58 43
f 43 58 59
f 43 59 44
f 44 59 60
f 44 60 45
f 45 60 61
f 45 61 46
f 46 61 62
f 46 62 47
f 47 62 63
f 47 63 48
f 48 63 64
f 48 64 33
f 33 64 49
f 49 65 50
f 50 65 66
f 50 66 51
f 51 66 67
f 51 67 52
f 52 67 68
f 52 68 53
f 53 68 69
f 53 69 54
f 54 69 70
f 54 70 55
f 55 70 71
f 55 71 56
f 56 71 72
f 56 72 57
f 57 72 73
f 57 73 58
f 58 73 74
f 58 74 59
f 59 74 75
f 59 75 60
f 60 75 76
f 60 76 61
f 61 76 77
f 61 77 62
f 62 77 78
f 62 78 63
f 63 78 79
f 63 79 64
f 64 79 80
f 64 80 49
f 49 80 65
f 65 81 66
f 66 81 82
f 66 82 67
f 67 82 83
f 67 83 68
f 68 83 84
f 68 84 69
f 69 84 85
f 69 85 70
f 70 85 86
f 70 86 71
f 71 86 87
f 71 87 72
f 72 87 88
f 72 88 73
f 73 88 89
f 73 89 74
f 74 89 90
f 74 90 75
f 75 90 91
f 75 91 76
f 76 91 92
f 76 92 77
f 77 92 93
f 77 93 78
f 78 93 94
f 78 94 79
f 79 94 95
f 79 95 80
f 80 95 96
f 80 96 65
f 65 96 81
f 81 97 82
f 82 97 98
f 82 98 83
f 83 98 99
f 83 99 84
f 84 99 100
f 84 100 85
f 85 100 101
f 85 101 86
f 86 101 102
f 86 102 87
f 87 102 103
f 87 103 88
f 88 103 104
f 88 104 89
f 89 104 105
f 89 105 90
f 90 105 106
f 90 106 91
f 91 106 107
f 91 107 92
f 92 107 108
f 92 108 93
f 93 108 109
f 93 109 94
f 94 109 110
f 94 110 95
f 95 110 111
f 95 111 96
f 96 111 112
f 96 112 81
f 81 112 97
f 97 113 98
f 98 113 114
f 98 114 99
f 99 114 115
f 99 115 100
f 100 115 116
f 100 116 101
f 101 116 117
f 101 117 102
f 102 117 118
f 102 118 103
f 103 118 119
f 103 119 104
f 104 119 120
f 104 120 105
f 105 120 121
f 105 121 106
f 106 121 122
f 106 122 107
f 107 122 123
f 107 123 108
f 108 123 124
f 108 124 109
f 109 124 125
f 109 125 110
f 110 125 126
f 110 126 111
f 111 126 127
f 111 127 112
f 112 127 128
f 112 128 97
f 97 128 113
f 113 129 114
f 114 129 130
f 114 130 115
f 115 130 131
f 115 131 116
f 116 131 132
f 116 132 117
f 117 132 133
f 117 133 118
f 118 133 134
f 118 134 119
f 119 134 135
f 119 135 120
f 120 135 136
f 120 136 121
f 121 136 137
f 121 137 122
f 122 137 138
f 122 138 123
f 123 138 139
f 123 139 124
f 124 139 140
f 124 140 125
f 125 140 141
f 125 141 126
f 126 141 142
f 126 142 127
f 127 142 143
f 127 143 128
f 128 143 144
f 128 144 113
f 113 144 129
f 129 145 130
f 130 145 146
f 130 146 131
f 131 146 147
f 131 147 132
f 132 147 148
f 132 148 133
f 133 148 149
f 133 149 134
f 134 149 150
f 134 150 135
f 135 150 151
f 135 151 136
f 136 151 152
f 136 152 137
f 137 152 153
f 137 153 138
f 138 153 154
f 138 154 139
f 139 154 155
f 139 155 140
f 140 155 156
f 140 156 141
f 141 156 157
f 141 157 142
f 142 157 158
f 142 158 143
f 143 158 159
f 143 159 144
f 144 159 160
f 144 160 129
f 129 160 145
f 145 161 146
f 146 161 162
f 146 162 147
f 147 162 163
f 147 163 148
f 148 163 164
f 148 164 149
f 149 164 165
f 149 165 150
f 150 165 166
f 150 166 151
f 151 166 167
f 151 167 152
f 152 167 168
f 152 168 153
f 153 168 169
f 153 169 154
f 154 169 170
f 154 170 155
f 155 170 171
f 155 171 156
f 156 171 172
f 156 172 157
f 157 172 173
f 157 173 158
f 158 173 174
f 158 174 159
f 159 174 175
f 159 175 160
f 160 175 176
f 160 176 145
f 145 176 161
f 161 177 162
f 162 177 178
f 162 178 163
f 163 178 179
f 163 179 164
f 164 179 180
f 164 180 165
f 165 180 181
f 165 181 166
f 166 181 182
f 166 182 167
f 167 182 183
f 167 183 168
f 168 183 184
f 168 184 169
f 169 184 185
f 169 185 170
f 170 185 186
f 170 186 171
f 171 186 187
f 171 187 172
f 172 187 188
f 172 188 173
f 173 188 189
f 173 189 174
f 174 189 190
f 174 190 175
f 175 190 191
f 175 191 176
f 176 191 192
f 176 192 161
f 161 192 177
f 177 193 178
f 178 193 194
f 178 194 179
f 179 194 195
f 179 195 180
f 180 195 196
f 180 196 181
f 181 196 197
f 181 197 182
f 182 197 198
f 182 198 183
f 183 198 199
f 183 199 184
f 184 199 200
f 184 200 185
f 185 200 201
f 185 201 186
f 186 201 202
f 186 202 187
f 187 202 203
f 187 203 188
f 188 203 204
f 188 204 189
f 189 204 205
f 189 205 190
f 190 205 206
f 190 206 191
f 191 206 207
f 191 207 192
f 192 207 208
f 192 208 177
f 177 208 193
f 193 209 194
f 194 209 210
f 194 210 195
f 195 210 211
f 195 211 196
f 196 211 212
f 196 212 197
f 197 212 213
f 197 213 198
f 198 213 214
f 198 214 199
f 199 214 215
f 199 215 200
f 200 215 216
f 200 216 201
f 201 216 217
f 201 217 202
f 202 217 218
f 202 218 203
f 203 218 219
f 203 219 204
f 204 219 220
f 204 220 205
f 205 220 221
f 205 221 206
f 206 221 222
f 206 222 207
f 207 222 223
f 207 223 208
f 208 223 224
f 208 224 193
f 193 224 209
f 209 225 210
f 210 225 226
f 210 226 211
f 211 226 227
f 211 227 212
f 212 227 228
f 212 228 213
f 213 228 229
f 213 229 214
f 214 229 230
f 214 230 215
f 215 230 231
f 215 231 216
f 216 231 232
f 216 232 217
f 217 232 233
f 217 233 218
f 218 233 234
f 218 234 219
f 219 234 235
f 219 235 220
f 220 235 236
f 220 236 221
f 221 236 237
f 221 237 222
f 222 237 238
f 222 238 223
f 223 238 239
f 223 239 224
f 224 239 240
f 224 240 209
f 209 240 225
f 225 241 226
f 226 241 242
f 226 242 227
f 227 242 243
f 227 243 228
f 228 243 244
f 228 244 229
f 229 244 245
f 229 245 230
f 230 245 246
f 230 246 231
f 231 246 247
f 231 247 232
f 232 247 248
f 232 248 233
f 233 248 249
f 233 249 234
f 234 249 250
f 234 250 235
f 235 250 251
f 235 251 236
f 236 251 252
f 236 252 237
f 237 252 253
f 237 253 238
f 238 253 254
f 238 254 239
f 239 254 255
f 239 255 240
f 240 255 256
f 240 256 225
f 225 256 241
f 241 257 242
f 242 257 258
f 242 258 243
f 243 258 259
f 243 259 244
f 244 259 260
f 244 260 245
f 245 260 261
f 245 261 246
f 246 261 262
f 246 262 247
f 247 262 263
f 247 263 248
f 248 263 264
f 248 264 249
f 249 264 265
f 249 265 250
f 250 265 266
f 250 266 251
f 251 266 267
f 251 267 252
f 252 267 268
f 252 268 253
f 253 268 269
f 253 269 254
f 254 269 270
f 254 270 255
f 255 270 271
f 255 271 256
f 256 271 272
f 256 272 241
f 241 272 257
f 273 1 2
f 274 258 257
f 273 2 3
f 274 259 258
f 273 3 4
f 274 260 259
f 273 4 5
f 274 261 260
f 273 5 6
f 274 262 261
f 273 6 7
f 274 263 262
f 273 7 8
f 274 264 263
f 273 8 9
f 274 265 264
f 273 9 10
f 274 266 265
f 273 10 11
f 274 267 266
f 273 11 12
f 274 268 267
f 273 12 13
f 274 269 268
f 273 13 14
f 274 270 269
f 273 14 15
f 274 271 270
f 273 15 16
f 274 272 271
f 273 16 1
f 274 257 272
