# torso of the wading figure, 544 triangles (tools/wading.py)
v 0.489762 0.810765 0.600000
v 0.485706 0.811192 0.620503
v 0.474156 0.812405 0.637884
v 0.456870 0.814222 0.649497
v 0.436480 0.816365 0.653576
v 0.416090 0.818509 0.649497
v 0.398804 0.820325 0.637884
v 0.387254 0.821539 0.620503
v 0.383198 0.821966 0.600000
v 0.387254 0.821539 0.579497
v 0.398804 0.820325 0.562116
v 0.416090 0.818509 0.550503
v 0.436480 0.816365 0.546424
v 0.456870 0.814222 0.550503
v 0.474156 0.812405 0.562116
v 0.485706 0.811192 0.579497
v 0.538105 0.836200 0.600000
v 0.530611 0.836987 0.637884
v 0.509269 0.839230 0.670000
v 0.477328 0.842587 0.691459
v 0.439652 0.846547 0.698995
v 0.401976 0.850507 0.691459
v 0.370036 0.853864 0.670000
v 0.348694 0.856107 0.637884
v 0.341200 0.856895 0.600000
v 0.348694 0.856107 0.562116
v 0.370036 0.853864 0.530000
v 0.401976 0.850507 0.508541
v 0.439652 0.846547 0.501005
v 0.477328 0.842587 0.508541
v 0.509269 0.839230 0.530000
v 0.530611 0.836987 0.562116
v 0.573034 0.878198 0.600000
v 0.563243 0.879227 0.649497
v 0.535358 0.882158 0.691459
v 0.493626 0.886544 0.719497
v 0.444400 0.891718 0.729343
v 0.395173 0.896892 0.719497
v 0.353441 0.901278 0.691459
v 0.325557 0.904209 0.649497
v 0.315765 0.905238 0.600000
v 0.325557 0.904209 0.550503
v 0.353441 0.901278 0.508541
v 0.395173 0.896892 0.480503
v 0.444400 0.891718 0.470657
v 0.493626 0.886544 0.480503
v 0.535358 0.882158 0.508541
v 0.563243 0.879227 0.550503
v 0.589233 0.930366 0.600000
v 0.578635 0.931480 0.653576
v 0.548453 0.934652 0.698995
v 0.503282 0.939400 0.729343
v 0.450000 0.945000 0.740000
v 0.396718 0.950600 0.729343
v 0.351547 0.955348 0.698995
v 0.321365 0.958520 0.653576
v 0.310767 0.959634 0.600000
v 0.321365 0.958520 0.546424
v 0.351547 0.955348 0.501005
v 0.396718 0.950600 0.470657
v 0.450000 0.945000 0.460000
v 0.503282 0.939400 0.470657
v 0.548453 0.934652 0.501005
v 0.578635 0.931480 0.546424
v 0.601155 1.005532 0.600000
v 0.590254 1.006677 0.655106
v 0.559210 1.009940 0.701823
v 0.512749 1.014823 0.733039
v 0.457944 1.020584 0.744000
v 0.403140 1.026344 0.733039
v 0.356679 1.031227 0.701823
v 0.325634 1.034490 0.655106
v 0.314733 1.035636 0.600000
v 0.325634 1.034490 0.544894
v 0.356679 1.031227 0.498177
v 0.403140 1.026344 0.466961
v 0.457944 1.020584 0.456000
v 0.512749 1.014823 0.466961
v 0.559210 1.009940 0.498177
v 0.590254 1.006677 0.544894
v 0.613078 1.080697 0.600000
v 0.601873 1.081875 0.656637
v 0.569967 1.085228 0.704652
v 0.522215 1.090247 0.736734
v 0.465888 1.096167 0.748000
v 0.409561 1.102088 0.736734
v 0.361810 1.107106 0.704652
v 0.329903 1.110460 0.656637
v 0.318699 1.111638 0.600000
v 0.329903 1.110460 0.543363
v 0.361810 1.107106 0.495348
v 0.409561 1.102088 0.463266
v 0.465888 1.096167 0.452000
v 0.522215 1.090247 0.463266
v 0.569967 1.085228 0.495348
v 0.601873 1.081875 0.543363
v 0.625000 1.155863 0.600000
v 0.613493 1.157072 0.658168
v 0.580724 1.160516 0.707480
v 0.531682 1.165671 0.740430
v 0.473832 1.171751 0.752000
v 0.415983 1.177831 0.740430
v 0.366941 1.182986 0.707480
v 0.334172 1.186430 0.658168
v 0.322665 1.187639 0.600000
v 0.334172 1.186430 0.541832
v 0.366941 1.182986 0.492520
v 0.415983 1.177831 0.459570
v 0.473832 1.171751 0.448000
v 0.531682 1.165671 0.459570
v 0.580724 1.160516 0.492520
v 0.613493 1.157072 0.541832
v 0.636922 1.231028 0.600000
v 0.625112 1.232269 0.659699
v 0.591481 1.235804 0.710309
v 0.541148 1.241094 0.744125
v 0.481777 1.247335 0.756000
v 0.422405 1.253575 0.744125
v 0.372072 1.258865 0.710309
v 0.338441 1.262400 0.659699
v 0.326631 1.263641 0.600000
v 0.338441 1.262400 0.540301
v 0.372072 1.258865 0.489691
v 0.422405 1.253575 0.455875
v 0.481777 1.247335 0.444000
v 0.541148 1.241094 0.455875
v 0.591481 1.235804 0.489691
v 0.625112 1.232269 0.540301
v 0.648844 1.306194 0.600000
v 0.636732 1.307467 0.661229
v 0.602238 1.311092 0.713137
v 0.550615 1.316518 0.747821
v 0.489721 1.322918 0.760000
v 0.428827 1.329319 0.747821
v 0.377204 1.334744 0.713137
v 0.342710 1.338370 0.661229
v 0.330597 1.339643 0.600000
v 0.342710 1.338370 0.538771
v 0.377204 1.334744 0.486863
v 0.428827 1.329319 0.452179
v 0.489721 1.322918 0.440000
v 0.550615 1.316518 0.452179
v 0.602238 1.311092 0.486863
v 0.636732 1.307467 0.538771
v 0.633502 1.341994 0.600000
v 0.622828 1.343115 0.653958
v 0.592431 1.346310 0.699702
v 0.546938 1.351092 0.730267
v 0.493275 1.356732 0.741000
v 0.439612 1.362372 0.730267
v 0.394119 1.367154 0.699702
v 0.363721 1.370349 0.653958
v 0.353047 1.371471 0.600000
v 0.363721 1.370349 0.546042
v 0.394119 1.367154 0.500298
v 0.439612 1.362372 0.469733
v 0.493275 1.356732 0.459000
v 0.546938 1.351092 0.469733
v 0.592431 1.346310 0.500298
v 0.622828 1.343115 0.546042
v 0.618160 1.377793 0.600000
v 0.608925 1.378764 0.646687
v 0.582623 1.381528 0.686267
v 0.543260 1.385666 0.712713
v 0.496829 1.390546 0.722000
v 0.450397 1.395426 0.712713
v 0.411034 1.399563 0.686267
v 0.384733 1.402328 0.646687
v 0.375497 1.403298 0.600000
v 0.384733 1.402328 0.553313
v 0.411034 1.399563 0.513733
v 0.450397 1.395426 0.487287
v 0.496829 1.390546 0.478000
v 0.543260 1.385666 0.487287
v 0.582623 1.381528 0.513733
v 0.608925 1.378764 0.553313
v 0.602818 1.413593 0.600000
v 0.595021 1.414413 0.639416
v 0.572816 1.416747 0.672832
v 0.539583 1.420239 0.695160
v 0.500383 1.424360 0.703000
v 0.461182 1.428480 0.695160
v 0.427950 1.431973 0.672832
v 0.405744 1.434306 0.639416
v 0.397947 1.435126 0.600000
v 0.405744 1.434306 0.560584
v 0.427950 1.431973 0.527168
v 0.461182 1.428480 0.504840
v 0.500383 1.424360 0.497000
v 0.539583 1.420239 0.504840
v 0.572816 1.416747 0.527168
v 0.595021 1.414413 0.560584
v 0.587477 1.449393 0.600000
v 0.581117 1.450061 0.632145
v 0.563008 1.451965 0.659397
v 0.535906 1.454813 0.677606
v 0.503937 1.458173 0.684000
v 0.471967 1.461533 0.677606
v 0.444865 1.464382 0.659397
v 0.426756 1.466285 0.632145
v 0.420397 1.466954 0.600000
v 0.426756 1.466285 0.567855
v 0.444865 1.464382 0.540603
v 0.471967 1.461533 0.522394
v 0.503937 1.458173 0.516000
v 0.535906 1.454813 0.522394
v 0.563008 1.451965 0.540603
v 0.581117 1.450061 0.567855
v 0.572135 1.485193 0.600000
v 0.567214 1.485710 0.624874
v 0.553201 1.487183 0.645962
v 0.532229 1.489387 0.660052
v 0.507491 1.491987 0.665000
v 0.482752 1.494587 0.660052
v 0.461780 1.496791 0.645962
v 0.447767 1.498264 0.624874
v 0.442847 1.498781 0.600000
v 0.447767 1.498264 0.575126
v 0.461780 1.496791 0.554038
v 0.482752 1.494587 0.539948
v 0.507491 1.491987 0.535000
v 0.532229 1.489387 0.539948
v 0.553201 1.487183 0.554038
v 0.567214 1.485710 0.575126
v 0.569814 1.510448 0.600000
v 0.565268 1.510926 0.622981
v 0.552321 1.512287 0.642463
v 0.532946 1.514323 0.655481
v 0.510091 1.516725 0.660052
v 0.487236 1.519127 0.655481
v 0.467860 1.521164 0.642463
v 0.454914 1.522525 0.622981
v 0.450368 1.523002 0.600000
v 0.454914 1.522525 0.577019
v 0.467860 1.521164 0.557537
v 0.487236 1.519127 0.544519
v 0.510091 1.516725 0.539948
v 0.532946 1.514323 0.544519
v 0.552321 1.512287 0.557537
v 0.565268 1.510926 0.577019
v 0.558005 1.532893 0.600000
v 0.554526 1.533259 0.617589
v 0.544617 1.534300 0.632500
v 0.529788 1.535859 0.642463
v 0.512295 1.537697 0.645962
v 0.494802 1.539536 0.642463
v 0.479973 1.541094 0.632500
v 0.470064 1.542136 0.617589
v 0.466585 1.542502 0.600000
v 0.470064 1.542136 0.582411
v 0.479973 1.541094 0.567500
v 0.494802 1.539536 0.557537
v 0.512295 1.537697 0.554038
v 0.529788 1.535859 0.557537
v 0.544617 1.534300 0.567500
v 0.554526 1.533259 0.582411
v 0.538506 1.549110 0.600000
v 0.536623 1.549308 0.609519
v 0.531260 1.549872 0.617589
v 0.523235 1.550715 0.622981
v 0.513768 1.551710 0.624874
v 0.504301 1.552705 0.622981
v 0.496275 1.553549 0.617589
v 0.490913 1.554112 0.609519
v 0.489030 1.554310 0.600000
v 0.490913 1.554112 0.590481
v 0.496275 1.553549 0.582411
v 0.504301 1.552705 0.577019
v 0.513768 1.551710 0.575126
v 0.523235 1.550715 0.577019
v 0.531260 1.549872 0.582411
v 0.536623 1.549308 0.590481
v 0.435366 0.805767 0.600000
v 0.514285 1.556631 0.600000
f 1 17 2
f 2 17 18
f 2 18 3
f 3 18 19
f 3 19 4
f 4 19 20
f 4 20 5
f 5 20 21
f 5 21 6
f 6 21 22
f 6 22 7
f 7 22 23
f 7 23 8
f 8 23 24
f 8 24 9
f 9 24 25
f 9 25 10
f 10 25 26
f 10 26 11
f 11 26 27
f 11 27 12
f 12 27 28
f 12 28 13
f 13 28 29
f 13 29 14
f 14 29 30
f 14 30 15
f 15 30 31
f 15 31 16
f 16 31 32
f 16 32 1
f 1 32 17
f 17 33 18
f 18 33 34
f 18 34 19
f 19 34 35
f 19 35 20
f 20 35 36
f 20 36 21
f 21 36 37
f 21 37 22
f 22 37 38
f 22 38 23
f 23 38 39
f 23 39 24
f 24 39 40
f 24 40 25
f 25 40 41
f 25 41 26
f 26 41 42
f 26 42 27
f 27 42 43
f 27 43 28
f 28 43 44
f 28 44 29
f 29 44 45
f 29 45 30
f 30 45 46
f 30 46 31
f 31 46 47
f 31 47 32
f 32 47 48
f 32 48 17
f 17 48 33
f 33 49 34
f 34 49 50
f 34 50 35
f 35 50 51
f 35 51 36
f 36 51 52
f 36 52 37
f 37 52 53
f 37 53 38
f 38 53 54
f 38 54 39
f 39 54 55
f 39 55 40
f 40 55 56
f 40 56 41
f 41 56 57
f 41 57 42
f 42 57 58
f 42 58 43
f 43 58 59
f 43 59 44
f 44 59 60
f 44 60 45
f 45 60 61
f 45 61 46
f 46 61 62
f 46 62 47
f 47 62 63
f 47 63 48
f 48 63 64
f 48 64 33
f 33 64 49
f 49 65 50
f 50 65 66
f 50 66 51
f 51 66 67
f 51 67 52
f 52 67 68
f 52 68 53
f 53 68 69
f 53 69 54
f 54 69 70
f 54 70 55
f 55 70 71
f 55 71 56
f 56 71 72
f 56 72 57
f 57 72 73
f 57 73 58
f 58 73 74
f 58 74 59
f 59 74 75
f 59 75 60
f 60 75 76
f 60 76 61
f 61 76 77
f 61 77 62
f 62 77 78
f 62 78 63
f 63 78 79
f 63 79 64
f 64 79 80
f 64 80 49
f 49 80 65
f 65 81 66
f 66 81 82
f 66 82 67
f 67 82 83
f 67 83 68
f 68 83 84
f 68 84 69
f 69 84 85
f 69 85 70
f 70 85 86
f 70 86 71
f 71 86 87
f 71 87 72
f 72 87 88
f 72 88 73
f 73 88 89
f 73 89 74
f 74 89 90
f 74 90 75
f 75 90 91
f 75 91 76
f 76 91 92
f 76 92 77
f 77 92 93
f 77 93 78
f 78 93 94
f 78 94 79
f 79 94 95
f 79 95 80
f 80 95 96
f 80 96 65
f 65 96 81
f 81 97 82
f 82 97 98
f 82 98 83
f 83 98 99
f 83 99 84
f 84 99 100
f 84 100 85
f 85 100 101
f 85 101 86
f 86 101 102
f 86 102 87
f 87 102 103
f 87 103 88
f 88 103 104
f 88 104 89
f 89 104 105
f 89 105 90
f 90 105 106
f 90 106 91
f 91 106 107
f 91 107 92
f 92 107 108
f 92 108 93
f 93 108 109
f 93 109 94
f 94 109 110
f 94 110 95
f 95 110 111
f 95 111 96
f 96 111 112
f 96 112 81
f 81 112 97
f 97 113 98
f 98 113 114
f 98 114 99
f 99 114 115
f 99 115 100
f 100 115 116
f 100 116 101
f 101 116 117
f 101 117 102
f 102 117 118
f 102 118 103
f 103 118 119
f 103 119 104
f 104 119 120
f 104 120 105
f 105 120 121
f 105 121 106
f 106 121 122
f 106 122 107
f 107 122 123
f 107 123 108
f 108 123 124
f 108 124 109
f 109 124 125
f 109 125 110
f 110 125 126
f 110 126 111
f 111 126 127
f 111 127 112
f 112 127 128
f 112 128 97
f 97 128 113
f 113 129 114
f 114 129 130
f 114 130 115
f 115 130 131
f 115 131 116
f 116 131 132
f 116 132 117
f 117 132 133
f 117 133 118
f 118 133 134
f 118 134 119
f 119 134 135
f 119 135 120
f 120 135 136
f 120 136 121
f 121 136 137
f 121 137 122
f 122 137 138
f 122 138 123
f 123 138 139
f 123 139 124
f 124 139 140
f 124 140 125
f 125 140 141
f 125 141 126
f 126 141 142
f 126 142 127
f 127 142 143
f 127 143 128
f 128 143 144
f 128 144 113
f 113 144 129
f 129 145 130
f 130 145 146
f 130 146 131
f 131 146 147
f 131 147 132
f 132 147 148
f 132 148 133
f 133 148 149
f 133 149 134
f 134 149 150
f 134 150 135
f 135 150 151
f 135 151 136
f 136 151 152
f 136 152 137
f 137 152 153
f 137 153 138
f 138 153 154
f 138 154 139
f 139 154 155
f 139 155 140
f 140 155 156
f 140 156 141
f 141 156 157
f 141 157 142
f 142 157 158
f 142 158 143
f 143 158 159
f 143 159 144
f 144 159 160
f 144 160 129
f 129 160 145
f 145 161 146
f 146 161 162
f 146 162 147
f 147 162 163
f 147 163 148
f 148 163 164
f 148 164 149
f 149 164 165
f 149 165 150
f 150 165 166
f 150 166 151
f 151 166 167
f 151 167 152
f 152 167 168
f 152 168 153
f 153 168 169
f 153 169 154
f 154 169 170
f 154 170 155
f 155 170 171
f 155 171 156
f 156 171 172
f 156 172 157
f 157 172 173
f 157 173 158
f 158 173 174
f 158 174 159
f 159 174 175
f 159 175 160
f 160 175 176
f 160 176 145
f 145 176 161
f 161 177 162
f 162 177 178
f 162 178 163
f 163 178 179
f 163 179 164
f 164 179 180
f 164 180 165
f 165 180 181
f 165 181 166
f 166 181 182
f 166 182 167
f 167 182 183
f 167 183 168
f 168 183 184
f 168 184 169
f 169 184 185
f 169 185 170
f 170 185 186
f 170 186 171
f 171 186 187
f 171 187 172
f 172 187 188
f 172 188 173
f 173 188 189
f 173 189 174
f 174 189 190
f 174 190 175
f 175 190 191
f 175 191 176
f 176 191 192
f 176 192 161
f 161 192 177
f 177 193 178
f 178 193 194
f 178 194 179
f 179 194 195
f 179 195 180
f 180 195 196
f 180 196 181
f 181 196 197
f 181 197 182
f 182 197 198
f 182 198 183
f 183 198 199
f 183 199 184
f 184 199 200
f 184 200 185
f 185 200 201
f 185 201 186
f 186 201 202
f 186 202 187
f 187 202 203
f 187 203 188
f 188 203 204
f 188 204 189
f 189 204 205
f 189 205 190
f 190 205 206
f 190 206 191
f 191 206 207
f 191 207 192
f 192 207 208
f 192 208 177
f 177 208 193
f 193 209 194
f 194 209 210
f 194 210 195
f 195 210 211
f 195 211 196
f 196 211 212
f 196 212 197
f 197 212 213
f 197 213 198
f 198 213 214
f 198 214 199
f 199 214 215
f 199 215 200
f 200 215 216
f 200 216 201
f 201 216 217
f 201 217 202
f 202 217 218
f 202 218 203
f 203 218 219
f 203 219 204
f 204 219 220
f 204 220 205
f 205 220 221
f 205 221 206
f 206 221 222
f 206 222 207
f 207 222 223
f 207 223 208
f 208 223 224
f 208 224 193
f 193 224 209
f 209 225 210
f 210 225 226
f 210 226 211
f 211 226 227
f 211 227 212
f 212 227 228
f 212 228 213
f 213 228 229
f 213 229 214
f 214 229 230
f 214 230 215
f 215 230 231
f 215 231 216
f 216 231 232
f 216 232 217
f 217 232 233
f 217 233 218
f 218 233 234
f 218 234 219
f 219 234 235
f 219 235 220
f 220 235 236
f 220 236 221
f 221 236 237
f 221 237 222
f 222 237 238
f 222 238 223
f 223 238 239
f 223 239 224
f 224 239 240
f 224 240 209
f 209 240 225
f 225 241 226
f 226 241 242
f 226 242 227
f 227 242 243
f 227 243 228
f 228 243 244
f 228 244 229
f 229 244 245
f 229 245 230
f 230 245 246
f 230 246 231
f 231 246 247
f 231 247 232
f 232 247 248
f 232 248 233
f 233 248 249
f 233 249 234
f 234 249 250
f 234 250 235
f 235 250 251
f 235 251 236
f 236 251 252
f 236 252 237
f 237 252 253
f 237 253 238
f 238 253 254
f 238 254 239
f 239 254 255
f 239 255 240
f 240 255 256
f 240 256 225
f 225 256 241
f 241 257 242
f 242 257 258
f 242 258 243
f 243 258 259
f 243 259 244
f 244 259 260
f 244 260 245
f 245 260 261
f 245 261 246
f 246 261 262
f 246 262 247
f 247 262 263
f 247 263 248
f 248 263 264
f 248 264 249
f 249 264 265
f 249 265 250
f 250 265 266
f 250 266 251
f 251 266 267
f 251 267 252
f 252 267 268
f 252 268 253
f 253 268 269
f 253 269 254
f 254 269 270
f 254 270 255
f 255 270 271
f 255 271 256
f 256 271 272
f 256 272 241
f 241 272 257
f 273 1 2
f 274 258 257
f 273 2 3
f 274 259 258
f 273 3 4
f 274 260 259
f 273 4 5
f 274 261 260
f 273 5 6
f 274 262 261
f 273 6 7
f 274 263 262
f 273 7 8
f 274 264 263
f 273 8 9
f 274 265 264
f 273 9 10
f 274 266 265
f 273 10 11
f 274 267 266
f 273 11 12
f 274 268 267
f 273 12 13
f 274 269 268
f 273 13 14
f 274 270 269
f 273 14 15
f 274 271 270
f 273 15 16
f 274 272 271
f 273 16 1
f 274 257 272
